%TF.GenerationSoftware,KiCad,Pcbnew,(6.0.10)*%
%TF.CreationDate,2023-01-22T20:40:01+02:00*%
%TF.ProjectId,ps2_media_sense_floppy_adapter,7073325f-6d65-4646-9961-5f73656e7365,rev?*%
%TF.SameCoordinates,Original*%
%TF.FileFunction,Copper,L1,Top*%
%TF.FilePolarity,Positive*%
%FSLAX46Y46*%
G04 Gerber Fmt 4.6, Leading zero omitted, Abs format (unit mm)*
G04 Created by KiCad (PCBNEW (6.0.10)) date 2023-01-22 20:40:01*
%MOMM*%
%LPD*%
G01*
G04 APERTURE LIST*
G04 Aperture macros list*
%AMRoundRect*
0 Rectangle with rounded corners*
0 $1 Rounding radius*
0 $2 $3 $4 $5 $6 $7 $8 $9 X,Y pos of 4 corners*
0 Add a 4 corners polygon primitive as box body*
4,1,4,$2,$3,$4,$5,$6,$7,$8,$9,$2,$3,0*
0 Add four circle primitives for the rounded corners*
1,1,$1+$1,$2,$3*
1,1,$1+$1,$4,$5*
1,1,$1+$1,$6,$7*
1,1,$1+$1,$8,$9*
0 Add four rect primitives between the rounded corners*
20,1,$1+$1,$2,$3,$4,$5,0*
20,1,$1+$1,$4,$5,$6,$7,0*
20,1,$1+$1,$6,$7,$8,$9,0*
20,1,$1+$1,$8,$9,$2,$3,0*%
G04 Aperture macros list end*
%TA.AperFunction,ComponentPad*%
%ADD10R,1.700000X1.700000*%
%TD*%
%TA.AperFunction,ComponentPad*%
%ADD11O,1.700000X1.700000*%
%TD*%
%TA.AperFunction,ComponentPad*%
%ADD12RoundRect,0.250000X-0.600000X-0.600000X0.600000X-0.600000X0.600000X0.600000X-0.600000X0.600000X0*%
%TD*%
%TA.AperFunction,ComponentPad*%
%ADD13C,1.700000*%
%TD*%
%TA.AperFunction,ComponentPad*%
%ADD14R,1.600000X1.600000*%
%TD*%
%TA.AperFunction,ComponentPad*%
%ADD15O,1.600000X1.600000*%
%TD*%
%TA.AperFunction,ViaPad*%
%ADD16C,0.800000*%
%TD*%
%TA.AperFunction,Conductor*%
%ADD17C,0.300000*%
%TD*%
%TA.AperFunction,Conductor*%
%ADD18C,0.500000*%
%TD*%
%TA.AperFunction,Conductor*%
%ADD19C,0.250000*%
%TD*%
G04 APERTURE END LIST*
D10*
%TO.P,JP2,1,A*%
%TO.N,GND*%
X106040000Y-56515000D03*
D11*
%TO.P,JP2,2,B*%
%TO.N,Net-(JP2-Pad2)*%
X108580000Y-56515000D03*
%TD*%
D12*
%TO.P,J1,1,Pin_1*%
%TO.N,GND*%
X95767500Y-54610000D03*
D13*
%TO.P,J1,2,Pin_2*%
%TO.N,/DRATE1*%
X98307500Y-54610000D03*
%TO.P,J1,3,Pin_3*%
%TO.N,+5V*%
X95767500Y-57150000D03*
%TO.P,J1,4,Pin_4*%
%TO.N,/DTYPE1*%
X98307500Y-57150000D03*
%TO.P,J1,5,Pin_5*%
%TO.N,GND*%
X95767500Y-59690000D03*
%TO.P,J1,6,Pin_6*%
%TO.N,+12V*%
X98307500Y-59690000D03*
%TO.P,J1,7,Pin_7*%
%TO.N,GND*%
X95767500Y-62230000D03*
%TO.P,J1,8,Pin_8*%
%TO.N,/INDEX*%
X98307500Y-62230000D03*
%TO.P,J1,9,Pin_9*%
%TO.N,/DTYPE0*%
X95767500Y-64770000D03*
%TO.P,J1,10,Pin_10*%
%TO.N,unconnected-(J1-Pad10)*%
X98307500Y-64770000D03*
%TO.P,J1,11,Pin_11*%
%TO.N,GND*%
X95767500Y-67310000D03*
%TO.P,J1,12,Pin_12*%
%TO.N,/DSEL*%
X98307500Y-67310000D03*
%TO.P,J1,13,Pin_13*%
%TO.N,GND*%
X95767500Y-69850000D03*
%TO.P,J1,14,Pin_14*%
%TO.N,unconnected-(J1-Pad14)*%
X98307500Y-69850000D03*
%TO.P,J1,15,Pin_15*%
%TO.N,GND*%
X95767500Y-72390000D03*
%TO.P,J1,16,Pin_16*%
%TO.N,/MOT_EN*%
X98307500Y-72390000D03*
%TO.P,J1,17,Pin_17*%
%TO.N,/MT_ID1*%
X95767500Y-74930000D03*
%TO.P,J1,18,Pin_18*%
%TO.N,/DIR*%
X98307500Y-74930000D03*
%TO.P,J1,19,Pin_19*%
%TO.N,GND*%
X95767500Y-77470000D03*
%TO.P,J1,20,Pin_20*%
%TO.N,/STEP*%
X98307500Y-77470000D03*
%TO.P,J1,21,Pin_21*%
%TO.N,GND*%
X95767500Y-80010000D03*
%TO.P,J1,22,Pin_22*%
%TO.N,/WDATA*%
X98307500Y-80010000D03*
%TO.P,J1,23,Pin_23*%
%TO.N,GND*%
X95767500Y-82550000D03*
%TO.P,J1,24,Pin_24*%
%TO.N,/WENABLE*%
X98307500Y-82550000D03*
%TO.P,J1,25,Pin_25*%
%TO.N,GND*%
X95767500Y-85090000D03*
%TO.P,J1,26,Pin_26*%
%TO.N,/TRACK0*%
X98307500Y-85090000D03*
%TO.P,J1,27,Pin_27*%
%TO.N,/MT_ID0*%
X95767500Y-87630000D03*
%TO.P,J1,28,Pin_28*%
%TO.N,/WPROT*%
X98307500Y-87630000D03*
%TO.P,J1,29,Pin_29*%
%TO.N,GND*%
X95767500Y-90170000D03*
%TO.P,J1,30,Pin_30*%
%TO.N,/RDATA*%
X98307500Y-90170000D03*
%TO.P,J1,31,Pin_31*%
%TO.N,GND*%
X95767500Y-92710000D03*
%TO.P,J1,32,Pin_32*%
%TO.N,/H1SEL*%
X98307500Y-92710000D03*
%TO.P,J1,33,Pin_33*%
%TO.N,/DRATE0*%
X95767500Y-95250000D03*
%TO.P,J1,34,Pin_34*%
%TO.N,/DSKCHG*%
X98307500Y-95250000D03*
%TD*%
D10*
%TO.P,JP4,1,A*%
%TO.N,GND*%
X106040000Y-70485000D03*
D11*
%TO.P,JP4,2,B*%
%TO.N,Net-(JP4-Pad2)*%
X108580000Y-70485000D03*
%TD*%
D14*
%TO.P,U1,1,I1/CLK*%
%TO.N,Net-(JP1-Pad1)*%
X114935000Y-52070000D03*
D15*
%TO.P,U1,2,I2*%
%TO.N,/DSEL*%
X114935000Y-54610000D03*
%TO.P,U1,3,I3*%
%TO.N,/DRATE1*%
X114935000Y-57150000D03*
%TO.P,U1,4,I4*%
%TO.N,/DRATE0*%
X114935000Y-59690000D03*
%TO.P,U1,5,I5*%
%TO.N,unconnected-(U1-Pad5)*%
X114935000Y-62230000D03*
%TO.P,U1,6,I6*%
%TO.N,Net-(JP2-Pad2)*%
X114935000Y-64770000D03*
%TO.P,U1,7,I7*%
%TO.N,Net-(JP3-Pad2)*%
X114935000Y-67310000D03*
%TO.P,U1,8,I8*%
%TO.N,Net-(JP4-Pad2)*%
X114935000Y-69850000D03*
%TO.P,U1,9,I9*%
%TO.N,unconnected-(U1-Pad9)*%
X114935000Y-72390000D03*
%TO.P,U1,10,GND*%
%TO.N,GND*%
X114935000Y-74930000D03*
%TO.P,U1,11,I10/~{OE}*%
%TO.N,unconnected-(U1-Pad11)*%
X122555000Y-74930000D03*
%TO.P,U1,12,IO8*%
%TO.N,unconnected-(U1-Pad12)*%
X122555000Y-72390000D03*
%TO.P,U1,13,IO7*%
%TO.N,unconnected-(U1-Pad13)*%
X122555000Y-69850000D03*
%TO.P,U1,14,IO6*%
%TO.N,/MT_ID0*%
X122555000Y-67310000D03*
%TO.P,U1,15,IO5*%
%TO.N,/MT_ID1*%
X122555000Y-64770000D03*
%TO.P,U1,16,IO4*%
%TO.N,/DTYPE0*%
X122555000Y-62230000D03*
%TO.P,U1,17,I03*%
%TO.N,/DTYPE1*%
X122555000Y-59690000D03*
%TO.P,U1,18,IO2*%
%TO.N,unconnected-(U1-Pad18)*%
X122555000Y-57150000D03*
%TO.P,U1,19,IO1*%
%TO.N,Net-(JP1-Pad3)*%
X122555000Y-54610000D03*
%TO.P,U1,20,VCC*%
%TO.N,+5V*%
X122555000Y-52070000D03*
%TD*%
D10*
%TO.P,J3,1,Pin_1*%
%TO.N,+5V*%
X129540000Y-45075000D03*
D11*
%TO.P,J3,2,Pin_2*%
%TO.N,GND*%
X129540000Y-42535000D03*
%TO.P,J3,3,Pin_3*%
X129540000Y-39995000D03*
%TO.P,J3,4,Pin_4*%
%TO.N,+12V*%
X129540000Y-37455000D03*
%TD*%
D12*
%TO.P,J2,1,Pin_1*%
%TO.N,GND*%
X132080000Y-54610000D03*
D13*
%TO.P,J2,2,Pin_2*%
%TO.N,/HSEL*%
X134620000Y-54610000D03*
%TO.P,J2,3,Pin_3*%
%TO.N,GND*%
X132080000Y-57150000D03*
%TO.P,J2,4,Pin_4*%
%TO.N,unconnected-(J2-Pad4)*%
X134620000Y-57150000D03*
%TO.P,J2,5,Pin_5*%
%TO.N,unconnected-(J2-Pad5)*%
X132080000Y-59690000D03*
%TO.P,J2,6,Pin_6*%
%TO.N,unconnected-(J2-Pad6)*%
X134620000Y-59690000D03*
%TO.P,J2,7,Pin_7*%
%TO.N,GND*%
X132080000Y-62230000D03*
%TO.P,J2,8,Pin_8*%
%TO.N,/INDEX*%
X134620000Y-62230000D03*
%TO.P,J2,9,Pin_9*%
%TO.N,GND*%
X132080000Y-64770000D03*
%TO.P,J2,10,Pin_10*%
%TO.N,unconnected-(J2-Pad10)*%
X134620000Y-64770000D03*
%TO.P,J2,11,Pin_11*%
%TO.N,GND*%
X132080000Y-67310000D03*
%TO.P,J2,12,Pin_12*%
%TO.N,/DSEL*%
X134620000Y-67310000D03*
%TO.P,J2,13,Pin_13*%
%TO.N,GND*%
X132080000Y-69850000D03*
%TO.P,J2,14,Pin_14*%
%TO.N,unconnected-(J2-Pad14)*%
X134620000Y-69850000D03*
%TO.P,J2,15,Pin_15*%
%TO.N,GND*%
X132080000Y-72390000D03*
%TO.P,J2,16,Pin_16*%
%TO.N,/MOT_EN*%
X134620000Y-72390000D03*
%TO.P,J2,17,Pin_17*%
%TO.N,GND*%
X132080000Y-74930000D03*
%TO.P,J2,18,Pin_18*%
%TO.N,/DIR*%
X134620000Y-74930000D03*
%TO.P,J2,19,Pin_19*%
%TO.N,GND*%
X132080000Y-77470000D03*
%TO.P,J2,20,Pin_20*%
%TO.N,/STEP*%
X134620000Y-77470000D03*
%TO.P,J2,21,Pin_21*%
%TO.N,GND*%
X132080000Y-80010000D03*
%TO.P,J2,22,Pin_22*%
%TO.N,/WDATA*%
X134620000Y-80010000D03*
%TO.P,J2,23,Pin_23*%
%TO.N,GND*%
X132080000Y-82550000D03*
%TO.P,J2,24,Pin_24*%
%TO.N,/WENABLE*%
X134620000Y-82550000D03*
%TO.P,J2,25,Pin_25*%
%TO.N,GND*%
X132080000Y-85090000D03*
%TO.P,J2,26,Pin_26*%
%TO.N,/TRACK0*%
X134620000Y-85090000D03*
%TO.P,J2,27,Pin_27*%
%TO.N,GND*%
X132080000Y-87630000D03*
%TO.P,J2,28,Pin_28*%
%TO.N,/WPROT*%
X134620000Y-87630000D03*
%TO.P,J2,29,Pin_29*%
%TO.N,GND*%
X132080000Y-90170000D03*
%TO.P,J2,30,Pin_30*%
%TO.N,/RDATA*%
X134620000Y-90170000D03*
%TO.P,J2,31,Pin_31*%
%TO.N,GND*%
X132080000Y-92710000D03*
%TO.P,J2,32,Pin_32*%
%TO.N,/H1SEL*%
X134620000Y-92710000D03*
%TO.P,J2,33,Pin_33*%
%TO.N,GND*%
X132080000Y-95250000D03*
%TO.P,J2,34,Pin_34*%
%TO.N,/DSKCHG*%
X134620000Y-95250000D03*
%TD*%
D10*
%TO.P,JP3,1,A*%
%TO.N,GND*%
X106040000Y-63500000D03*
D11*
%TO.P,JP3,2,B*%
%TO.N,Net-(JP3-Pad2)*%
X108580000Y-63500000D03*
%TD*%
D14*
%TO.P,RN1,1,common*%
%TO.N,+5V*%
X107950000Y-79995000D03*
D15*
%TO.P,RN1,2,R1*%
%TO.N,/INDEX*%
X107950000Y-82535000D03*
%TO.P,RN1,3,R2*%
%TO.N,/TRACK0*%
X107950000Y-85075000D03*
%TO.P,RN1,4,R3*%
%TO.N,/WPROT*%
X107950000Y-87615000D03*
%TO.P,RN1,5,R4*%
%TO.N,/RDATA*%
X107950000Y-90155000D03*
%TO.P,RN1,6,R5*%
%TO.N,/DSKCHG*%
X107950000Y-92695000D03*
%TO.P,RN1,7,R6*%
%TO.N,unconnected-(RN1-Pad7)*%
X107950000Y-95235000D03*
%TO.P,RN1,8,R7*%
%TO.N,unconnected-(RN1-Pad8)*%
X107950000Y-97775000D03*
%TO.P,RN1,9,R8*%
%TO.N,unconnected-(RN1-Pad9)*%
X107950000Y-100315000D03*
%TD*%
D10*
%TO.P,JP1,1,A*%
%TO.N,Net-(JP1-Pad1)*%
X107315000Y-40655000D03*
D11*
%TO.P,JP1,2,C*%
%TO.N,/HSEL*%
X107315000Y-43195000D03*
%TO.P,JP1,3,B*%
%TO.N,Net-(JP1-Pad3)*%
X107315000Y-45735000D03*
%TD*%
D16*
%TO.N,/DRATE0*%
X93472000Y-65024000D03*
%TD*%
D17*
%TO.N,/DRATE1*%
X98942500Y-53975000D02*
X98307500Y-54610000D01*
X114935000Y-57150000D02*
X111760000Y-53975000D01*
X111760000Y-53975000D02*
X98942500Y-53975000D01*
D18*
%TO.N,+5V*%
X94183200Y-57150000D02*
X93599000Y-56565800D01*
X95767500Y-57150000D02*
X94183200Y-57150000D01*
X93599000Y-56565800D02*
X93599000Y-48412400D01*
X103860600Y-38150800D02*
X122615800Y-38150800D01*
X93599000Y-48412400D02*
X103860600Y-38150800D01*
X122615800Y-38150800D02*
X129540000Y-45075000D01*
D17*
%TO.N,/DSEL*%
X99577500Y-68580000D02*
X119380000Y-68580000D01*
D19*
X114935000Y-54610000D02*
X116205000Y-55880000D01*
X123825000Y-55880000D02*
X125095000Y-57150000D01*
D17*
X119380000Y-68580000D02*
X121920000Y-66040000D01*
X98307500Y-67310000D02*
X99577500Y-68580000D01*
X121920000Y-66040000D02*
X125095000Y-66040000D01*
X125095000Y-66040000D02*
X133350000Y-66040000D01*
D19*
X125095000Y-57150000D02*
X125095000Y-66040000D01*
X116205000Y-55880000D02*
X123825000Y-55880000D01*
D17*
X133350000Y-66040000D02*
X134620000Y-67310000D01*
%TO.N,/INDEX*%
X136093200Y-80441800D02*
X136093200Y-63703200D01*
X97053400Y-80543400D02*
X97790000Y-81280000D01*
X126593600Y-81305400D02*
X135229600Y-81305400D01*
X135229600Y-81305400D02*
X136093200Y-80441800D01*
X98307500Y-62230000D02*
X97053400Y-63484100D01*
X97790000Y-81280000D02*
X104546400Y-81280000D01*
X104546400Y-81280000D02*
X105801400Y-82535000D01*
X105801400Y-82535000D02*
X107950000Y-82535000D01*
X136093200Y-63703200D02*
X134620000Y-62230000D01*
X97053400Y-63484100D02*
X97053400Y-80543400D01*
X125364000Y-82535000D02*
X126593600Y-81305400D01*
X107950000Y-82535000D02*
X125364000Y-82535000D01*
%TO.N,/MOT_EN*%
X113030000Y-72390000D02*
X114300000Y-71120000D01*
X114300000Y-71120000D02*
X133350000Y-71120000D01*
X133350000Y-71120000D02*
X134620000Y-72390000D01*
X98307500Y-72390000D02*
X113030000Y-72390000D01*
%TO.N,/DIR*%
X98307500Y-74930000D02*
X99577500Y-73660000D01*
X133350000Y-73660000D02*
X134620000Y-74930000D01*
X99577500Y-73660000D02*
X133350000Y-73660000D01*
%TO.N,/STEP*%
X133350000Y-76200000D02*
X134620000Y-77470000D01*
X128905000Y-77470000D02*
X130175000Y-76200000D01*
X98307500Y-77470000D02*
X128905000Y-77470000D01*
X130175000Y-76200000D02*
X133350000Y-76200000D01*
%TO.N,/WDATA*%
X99695000Y-80010000D02*
X100965000Y-78740000D01*
X133350000Y-78740000D02*
X134620000Y-80010000D01*
X98307500Y-80010000D02*
X99695000Y-80010000D01*
X100965000Y-78740000D02*
X133350000Y-78740000D01*
%TO.N,/WENABLE*%
X133350000Y-83820000D02*
X134620000Y-82550000D01*
X99577500Y-83820000D02*
X133350000Y-83820000D01*
X98307500Y-82550000D02*
X99577500Y-83820000D01*
%TO.N,/TRACK0*%
X134620000Y-85090000D02*
X133350000Y-86360000D01*
X109235000Y-86360000D02*
X107950000Y-85075000D01*
X98307500Y-85090000D02*
X107935000Y-85090000D01*
X107935000Y-85090000D02*
X107950000Y-85075000D01*
X133350000Y-86360000D02*
X109235000Y-86360000D01*
%TO.N,/DTYPE1*%
X100593500Y-54864000D02*
X98307500Y-57150000D01*
X110744000Y-54864000D02*
X100593500Y-54864000D01*
X122555000Y-59690000D02*
X121285000Y-58420000D01*
X114300000Y-58420000D02*
X110744000Y-54864000D01*
X121285000Y-58420000D02*
X114300000Y-58420000D01*
%TO.N,/WPROT*%
X109220000Y-88900000D02*
X133350000Y-88900000D01*
X107950000Y-87615000D02*
X109220000Y-88885000D01*
X107935000Y-87630000D02*
X107950000Y-87615000D01*
X133350000Y-88900000D02*
X134620000Y-87630000D01*
X98307500Y-87630000D02*
X107935000Y-87630000D01*
X109220000Y-88885000D02*
X109220000Y-88900000D01*
%TO.N,/RDATA*%
X109220000Y-91425000D02*
X109220000Y-91440000D01*
X107950000Y-90155000D02*
X109220000Y-91425000D01*
X109220000Y-91440000D02*
X133350000Y-91440000D01*
X133350000Y-91440000D02*
X134620000Y-90170000D01*
X107935000Y-90170000D02*
X107950000Y-90155000D01*
X98307500Y-90170000D02*
X107935000Y-90170000D01*
%TO.N,/H1SEL*%
X97053400Y-97739200D02*
X97053400Y-93964100D01*
X133096000Y-99060000D02*
X98374200Y-99060000D01*
X136118600Y-94208600D02*
X136118600Y-96037400D01*
X134620000Y-92710000D02*
X136118600Y-94208600D01*
X98374200Y-99060000D02*
X97053400Y-97739200D01*
X97053400Y-93964100D02*
X98307500Y-92710000D01*
X136118600Y-96037400D02*
X133096000Y-99060000D01*
%TO.N,/DRATE0*%
X93345000Y-92827500D02*
X93345000Y-65151000D01*
X95767500Y-95250000D02*
X93345000Y-92827500D01*
%TO.N,/DSKCHG*%
X98307500Y-95250000D02*
X105395000Y-95250000D01*
X107950000Y-92695000D02*
X109220000Y-93965000D01*
X109220000Y-93980000D02*
X133350000Y-93980000D01*
X133350000Y-93980000D02*
X134620000Y-95250000D01*
X105395000Y-95250000D02*
X107950000Y-92695000D01*
X109220000Y-93965000D02*
X109220000Y-93980000D01*
%TO.N,/DTYPE0*%
X118745000Y-66040000D02*
X122555000Y-62230000D01*
X95250000Y-60960000D02*
X109220000Y-60960000D01*
X94567500Y-61642500D02*
X95250000Y-60960000D01*
X94567500Y-63570000D02*
X94567500Y-61642500D01*
X114300000Y-66040000D02*
X118745000Y-66040000D01*
X109220000Y-60960000D02*
X114300000Y-66040000D01*
X95767500Y-64770000D02*
X94567500Y-63570000D01*
%TO.N,/HSEL*%
X123205000Y-43195000D02*
X107315000Y-43195000D01*
X134620000Y-54610000D02*
X123205000Y-43195000D01*
%TO.N,Net-(JP1-Pad1)*%
X107315000Y-40655000D02*
X107300000Y-40655000D01*
X107300000Y-40655000D02*
X105410000Y-42545000D01*
X110363000Y-52070000D02*
X114935000Y-52070000D01*
X105410000Y-42545000D02*
X105410000Y-47117000D01*
X105410000Y-47117000D02*
X110363000Y-52070000D01*
%TO.N,Net-(JP1-Pad3)*%
X113680000Y-45735000D02*
X122555000Y-54610000D01*
X107315000Y-45735000D02*
X113680000Y-45735000D01*
%TO.N,Net-(JP2-Pad2)*%
X108580000Y-58415000D02*
X114935000Y-64770000D01*
X108580000Y-56515000D02*
X108580000Y-58415000D01*
%TO.N,Net-(JP3-Pad2)*%
X112390000Y-67310000D02*
X108580000Y-63500000D01*
X114935000Y-67310000D02*
X112390000Y-67310000D01*
%TO.N,Net-(JP4-Pad2)*%
X114935000Y-69850000D02*
X109215000Y-69850000D01*
X109215000Y-69850000D02*
X108580000Y-70485000D01*
%TD*%
M02*
