M48
; DRILL file {KiCad (6.0.10)} date Sun Jan 22 20:33:37 2023
; FORMAT={-:-/ absolute / metric / decimal}
; #@! TF.CreationDate,2023-01-22T20:33:37+02:00
; #@! TF.GenerationSoftware,Kicad,Pcbnew,(6.0.10)
; #@! TF.FileFunction,MixedPlating,1,2
FMAT,2
METRIC
; #@! TA.AperFunction,Plated,PTH,ViaDrill
T1C0.400
; #@! TA.AperFunction,Plated,PTH,ComponentDrill
T2C0.800
; #@! TA.AperFunction,Plated,PTH,ComponentDrill
T3C1.000
; #@! TA.AperFunction,NonPlated,NPTH,ComponentDrill
T4C3.200
%
G90
G05
T1
X93.472Y-65.024
T2
X107.95Y-79.995
X107.95Y-82.535
X107.95Y-85.075
X107.95Y-87.615
X107.95Y-90.155
X107.95Y-92.695
X107.95Y-95.235
X107.95Y-97.775
X107.95Y-100.315
X114.935Y-52.07
X114.935Y-54.61
X114.935Y-57.15
X114.935Y-59.69
X114.935Y-62.23
X114.935Y-64.77
X114.935Y-67.31
X114.935Y-69.85
X114.935Y-72.39
X114.935Y-74.93
X122.555Y-52.07
X122.555Y-54.61
X122.555Y-57.15
X122.555Y-59.69
X122.555Y-62.23
X122.555Y-64.77
X122.555Y-67.31
X122.555Y-69.85
X122.555Y-72.39
X122.555Y-74.93
T3
X95.767Y-54.61
X95.767Y-57.15
X95.767Y-59.69
X95.767Y-62.23
X95.767Y-64.77
X95.767Y-67.31
X95.767Y-69.85
X95.767Y-72.39
X95.767Y-74.93
X95.767Y-77.47
X95.767Y-80.01
X95.767Y-82.55
X95.767Y-85.09
X95.767Y-87.63
X95.767Y-90.17
X95.767Y-92.71
X95.767Y-95.25
X98.307Y-54.61
X98.307Y-57.15
X98.307Y-59.69
X98.307Y-62.23
X98.307Y-64.77
X98.307Y-67.31
X98.307Y-69.85
X98.307Y-72.39
X98.307Y-74.93
X98.307Y-77.47
X98.307Y-80.01
X98.307Y-82.55
X98.307Y-85.09
X98.307Y-87.63
X98.307Y-90.17
X98.307Y-92.71
X98.307Y-95.25
X106.04Y-56.515
X106.04Y-63.5
X106.04Y-70.485
X107.315Y-40.655
X107.315Y-43.195
X107.315Y-45.735
X108.58Y-56.515
X108.58Y-63.5
X108.58Y-70.485
X129.54Y-37.455
X129.54Y-39.995
X129.54Y-42.535
X129.54Y-45.075
X132.08Y-54.61
X132.08Y-57.15
X132.08Y-59.69
X132.08Y-62.23
X132.08Y-64.77
X132.08Y-67.31
X132.08Y-69.85
X132.08Y-72.39
X132.08Y-74.93
X132.08Y-77.47
X132.08Y-80.01
X132.08Y-82.55
X132.08Y-85.09
X132.08Y-87.63
X132.08Y-90.17
X132.08Y-92.71
X132.08Y-95.25
X134.62Y-54.61
X134.62Y-57.15
X134.62Y-59.69
X134.62Y-62.23
X134.62Y-64.77
X134.62Y-67.31
X134.62Y-69.85
X134.62Y-72.39
X134.62Y-74.93
X134.62Y-77.47
X134.62Y-80.01
X134.62Y-82.55
X134.62Y-85.09
X134.62Y-87.63
X134.62Y-90.17
X134.62Y-92.71
X134.62Y-95.25
T4
X94.615Y-38.735
X94.615Y-104.902
X136.525Y-38.735
X136.525Y-104.902
T0
M30
