%TF.GenerationSoftware,KiCad,Pcbnew,(6.0.10)*%
%TF.CreationDate,2023-01-22T20:40:01+02:00*%
%TF.ProjectId,ps2_media_sense_floppy_adapter,7073325f-6d65-4646-9961-5f73656e7365,rev?*%
%TF.SameCoordinates,Original*%
%TF.FileFunction,Legend,Top*%
%TF.FilePolarity,Positive*%
%FSLAX46Y46*%
G04 Gerber Fmt 4.6, Leading zero omitted, Abs format (unit mm)*
G04 Created by KiCad (PCBNEW (6.0.10)) date 2023-01-22 20:40:01*
%MOMM*%
%LPD*%
G01*
G04 APERTURE LIST*
%ADD10C,0.150000*%
%ADD11C,0.120000*%
G04 APERTURE END LIST*
D10*
X103066866Y-104295380D02*
X103066866Y-103295380D01*
X103447819Y-103295380D01*
X103543057Y-103343000D01*
X103590676Y-103390619D01*
X103638295Y-103485857D01*
X103638295Y-103628714D01*
X103590676Y-103723952D01*
X103543057Y-103771571D01*
X103447819Y-103819190D01*
X103066866Y-103819190D01*
X104019247Y-104247761D02*
X104162104Y-104295380D01*
X104400200Y-104295380D01*
X104495438Y-104247761D01*
X104543057Y-104200142D01*
X104590676Y-104104904D01*
X104590676Y-104009666D01*
X104543057Y-103914428D01*
X104495438Y-103866809D01*
X104400200Y-103819190D01*
X104209723Y-103771571D01*
X104114485Y-103723952D01*
X104066866Y-103676333D01*
X104019247Y-103581095D01*
X104019247Y-103485857D01*
X104066866Y-103390619D01*
X104114485Y-103343000D01*
X104209723Y-103295380D01*
X104447819Y-103295380D01*
X104590676Y-103343000D01*
X105733533Y-103247761D02*
X104876390Y-104533476D01*
X106019247Y-103390619D02*
X106066866Y-103343000D01*
X106162104Y-103295380D01*
X106400200Y-103295380D01*
X106495438Y-103343000D01*
X106543057Y-103390619D01*
X106590676Y-103485857D01*
X106590676Y-103581095D01*
X106543057Y-103723952D01*
X105971628Y-104295380D01*
X106590676Y-104295380D01*
X107781152Y-104295380D02*
X107781152Y-103295380D01*
X108114485Y-104009666D01*
X108447819Y-103295380D01*
X108447819Y-104295380D01*
X109304961Y-104247761D02*
X109209723Y-104295380D01*
X109019247Y-104295380D01*
X108924009Y-104247761D01*
X108876390Y-104152523D01*
X108876390Y-103771571D01*
X108924009Y-103676333D01*
X109019247Y-103628714D01*
X109209723Y-103628714D01*
X109304961Y-103676333D01*
X109352580Y-103771571D01*
X109352580Y-103866809D01*
X108876390Y-103962047D01*
X110209723Y-104295380D02*
X110209723Y-103295380D01*
X110209723Y-104247761D02*
X110114485Y-104295380D01*
X109924009Y-104295380D01*
X109828771Y-104247761D01*
X109781152Y-104200142D01*
X109733533Y-104104904D01*
X109733533Y-103819190D01*
X109781152Y-103723952D01*
X109828771Y-103676333D01*
X109924009Y-103628714D01*
X110114485Y-103628714D01*
X110209723Y-103676333D01*
X110685914Y-104295380D02*
X110685914Y-103628714D01*
X110685914Y-103295380D02*
X110638295Y-103343000D01*
X110685914Y-103390619D01*
X110733533Y-103343000D01*
X110685914Y-103295380D01*
X110685914Y-103390619D01*
X111590676Y-104295380D02*
X111590676Y-103771571D01*
X111543057Y-103676333D01*
X111447819Y-103628714D01*
X111257342Y-103628714D01*
X111162104Y-103676333D01*
X111590676Y-104247761D02*
X111495438Y-104295380D01*
X111257342Y-104295380D01*
X111162104Y-104247761D01*
X111114485Y-104152523D01*
X111114485Y-104057285D01*
X111162104Y-103962047D01*
X111257342Y-103914428D01*
X111495438Y-103914428D01*
X111590676Y-103866809D01*
X112781152Y-104247761D02*
X112924009Y-104295380D01*
X113162104Y-104295380D01*
X113257342Y-104247761D01*
X113304961Y-104200142D01*
X113352580Y-104104904D01*
X113352580Y-104009666D01*
X113304961Y-103914428D01*
X113257342Y-103866809D01*
X113162104Y-103819190D01*
X112971628Y-103771571D01*
X112876390Y-103723952D01*
X112828771Y-103676333D01*
X112781152Y-103581095D01*
X112781152Y-103485857D01*
X112828771Y-103390619D01*
X112876390Y-103343000D01*
X112971628Y-103295380D01*
X113209723Y-103295380D01*
X113352580Y-103343000D01*
X114162104Y-104247761D02*
X114066866Y-104295380D01*
X113876390Y-104295380D01*
X113781152Y-104247761D01*
X113733533Y-104152523D01*
X113733533Y-103771571D01*
X113781152Y-103676333D01*
X113876390Y-103628714D01*
X114066866Y-103628714D01*
X114162104Y-103676333D01*
X114209723Y-103771571D01*
X114209723Y-103866809D01*
X113733533Y-103962047D01*
X114638295Y-103628714D02*
X114638295Y-104295380D01*
X114638295Y-103723952D02*
X114685914Y-103676333D01*
X114781152Y-103628714D01*
X114924009Y-103628714D01*
X115019247Y-103676333D01*
X115066866Y-103771571D01*
X115066866Y-104295380D01*
X115495438Y-104247761D02*
X115590676Y-104295380D01*
X115781152Y-104295380D01*
X115876390Y-104247761D01*
X115924009Y-104152523D01*
X115924009Y-104104904D01*
X115876390Y-104009666D01*
X115781152Y-103962047D01*
X115638295Y-103962047D01*
X115543057Y-103914428D01*
X115495438Y-103819190D01*
X115495438Y-103771571D01*
X115543057Y-103676333D01*
X115638295Y-103628714D01*
X115781152Y-103628714D01*
X115876390Y-103676333D01*
X116733533Y-104247761D02*
X116638295Y-104295380D01*
X116447819Y-104295380D01*
X116352580Y-104247761D01*
X116304961Y-104152523D01*
X116304961Y-103771571D01*
X116352580Y-103676333D01*
X116447819Y-103628714D01*
X116638295Y-103628714D01*
X116733533Y-103676333D01*
X116781152Y-103771571D01*
X116781152Y-103866809D01*
X116304961Y-103962047D01*
X118304961Y-103771571D02*
X117971628Y-103771571D01*
X117971628Y-104295380D02*
X117971628Y-103295380D01*
X118447819Y-103295380D01*
X118971628Y-104295380D02*
X118876390Y-104247761D01*
X118828771Y-104152523D01*
X118828771Y-103295380D01*
X119495438Y-104295380D02*
X119400200Y-104247761D01*
X119352580Y-104200142D01*
X119304961Y-104104904D01*
X119304961Y-103819190D01*
X119352580Y-103723952D01*
X119400200Y-103676333D01*
X119495438Y-103628714D01*
X119638295Y-103628714D01*
X119733533Y-103676333D01*
X119781152Y-103723952D01*
X119828771Y-103819190D01*
X119828771Y-104104904D01*
X119781152Y-104200142D01*
X119733533Y-104247761D01*
X119638295Y-104295380D01*
X119495438Y-104295380D01*
X120257342Y-103628714D02*
X120257342Y-104628714D01*
X120257342Y-103676333D02*
X120352580Y-103628714D01*
X120543057Y-103628714D01*
X120638295Y-103676333D01*
X120685914Y-103723952D01*
X120733533Y-103819190D01*
X120733533Y-104104904D01*
X120685914Y-104200142D01*
X120638295Y-104247761D01*
X120543057Y-104295380D01*
X120352580Y-104295380D01*
X120257342Y-104247761D01*
X121162104Y-103628714D02*
X121162104Y-104628714D01*
X121162104Y-103676333D02*
X121257342Y-103628714D01*
X121447819Y-103628714D01*
X121543057Y-103676333D01*
X121590676Y-103723952D01*
X121638295Y-103819190D01*
X121638295Y-104104904D01*
X121590676Y-104200142D01*
X121543057Y-104247761D01*
X121447819Y-104295380D01*
X121257342Y-104295380D01*
X121162104Y-104247761D01*
X121971628Y-103628714D02*
X122209723Y-104295380D01*
X122447819Y-103628714D02*
X122209723Y-104295380D01*
X122114485Y-104533476D01*
X122066866Y-104581095D01*
X121971628Y-104628714D01*
X123543057Y-104009666D02*
X124019247Y-104009666D01*
X123447819Y-104295380D02*
X123781152Y-103295380D01*
X124114485Y-104295380D01*
X124876390Y-104295380D02*
X124876390Y-103295380D01*
X124876390Y-104247761D02*
X124781152Y-104295380D01*
X124590676Y-104295380D01*
X124495438Y-104247761D01*
X124447819Y-104200142D01*
X124400200Y-104104904D01*
X124400200Y-103819190D01*
X124447819Y-103723952D01*
X124495438Y-103676333D01*
X124590676Y-103628714D01*
X124781152Y-103628714D01*
X124876390Y-103676333D01*
X125781152Y-104295380D02*
X125781152Y-103771571D01*
X125733533Y-103676333D01*
X125638295Y-103628714D01*
X125447819Y-103628714D01*
X125352580Y-103676333D01*
X125781152Y-104247761D02*
X125685914Y-104295380D01*
X125447819Y-104295380D01*
X125352580Y-104247761D01*
X125304961Y-104152523D01*
X125304961Y-104057285D01*
X125352580Y-103962047D01*
X125447819Y-103914428D01*
X125685914Y-103914428D01*
X125781152Y-103866809D01*
X126257342Y-103628714D02*
X126257342Y-104628714D01*
X126257342Y-103676333D02*
X126352580Y-103628714D01*
X126543057Y-103628714D01*
X126638295Y-103676333D01*
X126685914Y-103723952D01*
X126733533Y-103819190D01*
X126733533Y-104104904D01*
X126685914Y-104200142D01*
X126638295Y-104247761D01*
X126543057Y-104295380D01*
X126352580Y-104295380D01*
X126257342Y-104247761D01*
X127019247Y-103628714D02*
X127400199Y-103628714D01*
X127162104Y-103295380D02*
X127162104Y-104152523D01*
X127209723Y-104247761D01*
X127304961Y-104295380D01*
X127400199Y-104295380D01*
X128114485Y-104247761D02*
X128019247Y-104295380D01*
X127828771Y-104295380D01*
X127733533Y-104247761D01*
X127685914Y-104152523D01*
X127685914Y-103771571D01*
X127733533Y-103676333D01*
X127828771Y-103628714D01*
X128019247Y-103628714D01*
X128114485Y-103676333D01*
X128162104Y-103771571D01*
X128162104Y-103866809D01*
X127685914Y-103962047D01*
X128590676Y-104295380D02*
X128590676Y-103628714D01*
X128590676Y-103819190D02*
X128638295Y-103723952D01*
X128685914Y-103676333D01*
X128781152Y-103628714D01*
X128876390Y-103628714D01*
X111614485Y-105238714D02*
X111852580Y-105905380D01*
X112090676Y-105238714D01*
X112471628Y-105810142D02*
X112519247Y-105857761D01*
X112471628Y-105905380D01*
X112424009Y-105857761D01*
X112471628Y-105810142D01*
X112471628Y-105905380D01*
X112900200Y-105000619D02*
X112947819Y-104953000D01*
X113043057Y-104905380D01*
X113281152Y-104905380D01*
X113376390Y-104953000D01*
X113424009Y-105000619D01*
X113471628Y-105095857D01*
X113471628Y-105191095D01*
X113424009Y-105333952D01*
X112852580Y-105905380D01*
X113471628Y-105905380D01*
X114090676Y-104905380D02*
X114185914Y-104905380D01*
X114281152Y-104953000D01*
X114328771Y-105000619D01*
X114376390Y-105095857D01*
X114424009Y-105286333D01*
X114424009Y-105524428D01*
X114376390Y-105714904D01*
X114328771Y-105810142D01*
X114281152Y-105857761D01*
X114185914Y-105905380D01*
X114090676Y-105905380D01*
X113995438Y-105857761D01*
X113947819Y-105810142D01*
X113900200Y-105714904D01*
X113852580Y-105524428D01*
X113852580Y-105286333D01*
X113900200Y-105095857D01*
X113947819Y-105000619D01*
X113995438Y-104953000D01*
X114090676Y-104905380D01*
X114804961Y-105000619D02*
X114852580Y-104953000D01*
X114947819Y-104905380D01*
X115185914Y-104905380D01*
X115281152Y-104953000D01*
X115328771Y-105000619D01*
X115376390Y-105095857D01*
X115376390Y-105191095D01*
X115328771Y-105333952D01*
X114757342Y-105905380D01*
X115376390Y-105905380D01*
X115709723Y-104905380D02*
X116328771Y-104905380D01*
X115995438Y-105286333D01*
X116138295Y-105286333D01*
X116233533Y-105333952D01*
X116281152Y-105381571D01*
X116328771Y-105476809D01*
X116328771Y-105714904D01*
X116281152Y-105810142D01*
X116233533Y-105857761D01*
X116138295Y-105905380D01*
X115852580Y-105905380D01*
X115757342Y-105857761D01*
X115709723Y-105810142D01*
X116757342Y-105810142D02*
X116804961Y-105857761D01*
X116757342Y-105905380D01*
X116709723Y-105857761D01*
X116757342Y-105810142D01*
X116757342Y-105905380D01*
X117424009Y-104905380D02*
X117519247Y-104905380D01*
X117614485Y-104953000D01*
X117662104Y-105000619D01*
X117709723Y-105095857D01*
X117757342Y-105286333D01*
X117757342Y-105524428D01*
X117709723Y-105714904D01*
X117662104Y-105810142D01*
X117614485Y-105857761D01*
X117519247Y-105905380D01*
X117424009Y-105905380D01*
X117328771Y-105857761D01*
X117281152Y-105810142D01*
X117233533Y-105714904D01*
X117185914Y-105524428D01*
X117185914Y-105286333D01*
X117233533Y-105095857D01*
X117281152Y-105000619D01*
X117328771Y-104953000D01*
X117424009Y-104905380D01*
X118709723Y-105905380D02*
X118138295Y-105905380D01*
X118424009Y-105905380D02*
X118424009Y-104905380D01*
X118328771Y-105048238D01*
X118233533Y-105143476D01*
X118138295Y-105191095D01*
X119138295Y-105810142D02*
X119185914Y-105857761D01*
X119138295Y-105905380D01*
X119090676Y-105857761D01*
X119138295Y-105810142D01*
X119138295Y-105905380D01*
X119804961Y-104905380D02*
X119900200Y-104905380D01*
X119995438Y-104953000D01*
X120043057Y-105000619D01*
X120090676Y-105095857D01*
X120138295Y-105286333D01*
X120138295Y-105524428D01*
X120090676Y-105714904D01*
X120043057Y-105810142D01*
X119995438Y-105857761D01*
X119900200Y-105905380D01*
X119804961Y-105905380D01*
X119709723Y-105857761D01*
X119662104Y-105810142D01*
X119614485Y-105714904D01*
X119566866Y-105524428D01*
X119566866Y-105286333D01*
X119614485Y-105095857D01*
X119662104Y-105000619D01*
X119709723Y-104953000D01*
X119804961Y-104905380D01*
X106054142Y-108402333D02*
X106006523Y-108354714D01*
X105911285Y-108211857D01*
X105863666Y-108116619D01*
X105816047Y-107973761D01*
X105768428Y-107735666D01*
X105768428Y-107545190D01*
X105816047Y-107307095D01*
X105863666Y-107164238D01*
X105911285Y-107069000D01*
X106006523Y-106926142D01*
X106054142Y-106878523D01*
X107006523Y-107926142D02*
X106958904Y-107973761D01*
X106816047Y-108021380D01*
X106720809Y-108021380D01*
X106577952Y-107973761D01*
X106482714Y-107878523D01*
X106435095Y-107783285D01*
X106387476Y-107592809D01*
X106387476Y-107449952D01*
X106435095Y-107259476D01*
X106482714Y-107164238D01*
X106577952Y-107069000D01*
X106720809Y-107021380D01*
X106816047Y-107021380D01*
X106958904Y-107069000D01*
X107006523Y-107116619D01*
X107339857Y-108402333D02*
X107387476Y-108354714D01*
X107482714Y-108211857D01*
X107530333Y-108116619D01*
X107577952Y-107973761D01*
X107625571Y-107735666D01*
X107625571Y-107545190D01*
X107577952Y-107307095D01*
X107530333Y-107164238D01*
X107482714Y-107069000D01*
X107387476Y-106926142D01*
X107339857Y-106878523D01*
X108720809Y-107021380D02*
X109292238Y-107021380D01*
X109006523Y-108021380D02*
X109006523Y-107021380D01*
X109625571Y-108021380D02*
X109625571Y-107354714D01*
X109625571Y-107021380D02*
X109577952Y-107069000D01*
X109625571Y-107116619D01*
X109673190Y-107069000D01*
X109625571Y-107021380D01*
X109625571Y-107116619D01*
X110101761Y-108021380D02*
X110101761Y-107354714D01*
X110101761Y-107449952D02*
X110149380Y-107402333D01*
X110244619Y-107354714D01*
X110387476Y-107354714D01*
X110482714Y-107402333D01*
X110530333Y-107497571D01*
X110530333Y-108021380D01*
X110530333Y-107497571D02*
X110577952Y-107402333D01*
X110673190Y-107354714D01*
X110816047Y-107354714D01*
X110911285Y-107402333D01*
X110958904Y-107497571D01*
X110958904Y-108021380D01*
X111435095Y-108021380D02*
X111435095Y-107354714D01*
X111435095Y-107021380D02*
X111387476Y-107069000D01*
X111435095Y-107116619D01*
X111482714Y-107069000D01*
X111435095Y-107021380D01*
X111435095Y-107116619D01*
X112530333Y-107021380D02*
X113101761Y-107021380D01*
X112816047Y-108021380D02*
X112816047Y-107021380D01*
X113863666Y-107354714D02*
X113863666Y-108021380D01*
X113435095Y-107354714D02*
X113435095Y-107878523D01*
X113482714Y-107973761D01*
X113577952Y-108021380D01*
X113720809Y-108021380D01*
X113816047Y-107973761D01*
X113863666Y-107926142D01*
X114482714Y-108021380D02*
X114387476Y-107973761D01*
X114339857Y-107926142D01*
X114292238Y-107830904D01*
X114292238Y-107545190D01*
X114339857Y-107449952D01*
X114387476Y-107402333D01*
X114482714Y-107354714D01*
X114625571Y-107354714D01*
X114720809Y-107402333D01*
X114768428Y-107449952D01*
X114816047Y-107545190D01*
X114816047Y-107830904D01*
X114768428Y-107926142D01*
X114720809Y-107973761D01*
X114625571Y-108021380D01*
X114482714Y-108021380D01*
X115244619Y-108021380D02*
X115244619Y-107021380D01*
X115673190Y-108021380D02*
X115673190Y-107497571D01*
X115625571Y-107402333D01*
X115530333Y-107354714D01*
X115387476Y-107354714D01*
X115292238Y-107402333D01*
X115244619Y-107449952D01*
X116530333Y-107973761D02*
X116435095Y-108021380D01*
X116244619Y-108021380D01*
X116149380Y-107973761D01*
X116101761Y-107878523D01*
X116101761Y-107497571D01*
X116149380Y-107402333D01*
X116244619Y-107354714D01*
X116435095Y-107354714D01*
X116530333Y-107402333D01*
X116577952Y-107497571D01*
X116577952Y-107592809D01*
X116101761Y-107688047D01*
X117006523Y-107354714D02*
X117006523Y-108021380D01*
X117006523Y-107449952D02*
X117054142Y-107402333D01*
X117149380Y-107354714D01*
X117292238Y-107354714D01*
X117387476Y-107402333D01*
X117435095Y-107497571D01*
X117435095Y-108021380D01*
X117911285Y-108021380D02*
X117911285Y-107354714D01*
X117911285Y-107449952D02*
X117958904Y-107402333D01*
X118054142Y-107354714D01*
X118197000Y-107354714D01*
X118292238Y-107402333D01*
X118339857Y-107497571D01*
X118339857Y-108021380D01*
X118339857Y-107497571D02*
X118387476Y-107402333D01*
X118482714Y-107354714D01*
X118625571Y-107354714D01*
X118720809Y-107402333D01*
X118768428Y-107497571D01*
X118768428Y-108021380D01*
X119673190Y-108021380D02*
X119673190Y-107497571D01*
X119625571Y-107402333D01*
X119530333Y-107354714D01*
X119339857Y-107354714D01*
X119244619Y-107402333D01*
X119673190Y-107973761D02*
X119577952Y-108021380D01*
X119339857Y-108021380D01*
X119244619Y-107973761D01*
X119197000Y-107878523D01*
X119197000Y-107783285D01*
X119244619Y-107688047D01*
X119339857Y-107640428D01*
X119577952Y-107640428D01*
X119673190Y-107592809D01*
X120577952Y-108021380D02*
X120577952Y-107497571D01*
X120530333Y-107402333D01*
X120435095Y-107354714D01*
X120244619Y-107354714D01*
X120149380Y-107402333D01*
X120577952Y-107973761D02*
X120482714Y-108021380D01*
X120244619Y-108021380D01*
X120149380Y-107973761D01*
X120101761Y-107878523D01*
X120101761Y-107783285D01*
X120149380Y-107688047D01*
X120244619Y-107640428D01*
X120482714Y-107640428D01*
X120577952Y-107592809D01*
X121101761Y-107973761D02*
X121101761Y-108021380D01*
X121054142Y-108116619D01*
X121006523Y-108164238D01*
X122244619Y-107116619D02*
X122292238Y-107069000D01*
X122387476Y-107021380D01*
X122625571Y-107021380D01*
X122720809Y-107069000D01*
X122768428Y-107116619D01*
X122816047Y-107211857D01*
X122816047Y-107307095D01*
X122768428Y-107449952D01*
X122197000Y-108021380D01*
X122816047Y-108021380D01*
X123435095Y-107021380D02*
X123530333Y-107021380D01*
X123625571Y-107069000D01*
X123673190Y-107116619D01*
X123720809Y-107211857D01*
X123768428Y-107402333D01*
X123768428Y-107640428D01*
X123720809Y-107830904D01*
X123673190Y-107926142D01*
X123625571Y-107973761D01*
X123530333Y-108021380D01*
X123435095Y-108021380D01*
X123339857Y-107973761D01*
X123292238Y-107926142D01*
X123244619Y-107830904D01*
X123197000Y-107640428D01*
X123197000Y-107402333D01*
X123244619Y-107211857D01*
X123292238Y-107116619D01*
X123339857Y-107069000D01*
X123435095Y-107021380D01*
X124149380Y-107116619D02*
X124197000Y-107069000D01*
X124292238Y-107021380D01*
X124530333Y-107021380D01*
X124625571Y-107069000D01*
X124673190Y-107116619D01*
X124720809Y-107211857D01*
X124720809Y-107307095D01*
X124673190Y-107449952D01*
X124101761Y-108021380D01*
X124720809Y-108021380D01*
X125054142Y-107021380D02*
X125673190Y-107021380D01*
X125339857Y-107402333D01*
X125482714Y-107402333D01*
X125577952Y-107449952D01*
X125625571Y-107497571D01*
X125673190Y-107592809D01*
X125673190Y-107830904D01*
X125625571Y-107926142D01*
X125577952Y-107973761D01*
X125482714Y-108021380D01*
X125197000Y-108021380D01*
X125101761Y-107973761D01*
X125054142Y-107926142D01*
X109324238Y-44902380D02*
X109324238Y-43902380D01*
X109562333Y-43902380D01*
X109705190Y-43950000D01*
X109800428Y-44045238D01*
X109848047Y-44140476D01*
X109895666Y-44330952D01*
X109895666Y-44473809D01*
X109848047Y-44664285D01*
X109800428Y-44759523D01*
X109705190Y-44854761D01*
X109562333Y-44902380D01*
X109324238Y-44902380D01*
X110705190Y-44854761D02*
X110609952Y-44902380D01*
X110419476Y-44902380D01*
X110324238Y-44854761D01*
X110276619Y-44759523D01*
X110276619Y-44378571D01*
X110324238Y-44283333D01*
X110419476Y-44235714D01*
X110609952Y-44235714D01*
X110705190Y-44283333D01*
X110752809Y-44378571D01*
X110752809Y-44473809D01*
X110276619Y-44569047D01*
X111181380Y-44235714D02*
X111181380Y-44902380D01*
X111181380Y-44330952D02*
X111229000Y-44283333D01*
X111324238Y-44235714D01*
X111467095Y-44235714D01*
X111562333Y-44283333D01*
X111609952Y-44378571D01*
X111609952Y-44902380D01*
X112038523Y-44854761D02*
X112133761Y-44902380D01*
X112324238Y-44902380D01*
X112419476Y-44854761D01*
X112467095Y-44759523D01*
X112467095Y-44711904D01*
X112419476Y-44616666D01*
X112324238Y-44569047D01*
X112181380Y-44569047D01*
X112086142Y-44521428D01*
X112038523Y-44426190D01*
X112038523Y-44378571D01*
X112086142Y-44283333D01*
X112181380Y-44235714D01*
X112324238Y-44235714D01*
X112419476Y-44283333D01*
X112895666Y-44902380D02*
X112895666Y-44235714D01*
X112895666Y-43902380D02*
X112848047Y-43950000D01*
X112895666Y-43997619D01*
X112943285Y-43950000D01*
X112895666Y-43902380D01*
X112895666Y-43997619D01*
X113229000Y-44235714D02*
X113609952Y-44235714D01*
X113371857Y-43902380D02*
X113371857Y-44759523D01*
X113419476Y-44854761D01*
X113514714Y-44902380D01*
X113609952Y-44902380D01*
X113848047Y-44235714D02*
X114086142Y-44902380D01*
X114324238Y-44235714D02*
X114086142Y-44902380D01*
X113990904Y-45140476D01*
X113943285Y-45188095D01*
X113848047Y-45235714D01*
X115324238Y-44235714D02*
X115705190Y-44235714D01*
X115467095Y-44902380D02*
X115467095Y-44045238D01*
X115514714Y-43950000D01*
X115609952Y-43902380D01*
X115705190Y-43902380D01*
X116038523Y-44902380D02*
X116038523Y-44235714D01*
X116038523Y-44426190D02*
X116086142Y-44330952D01*
X116133761Y-44283333D01*
X116229000Y-44235714D01*
X116324238Y-44235714D01*
X116800428Y-44902380D02*
X116705190Y-44854761D01*
X116657571Y-44807142D01*
X116609952Y-44711904D01*
X116609952Y-44426190D01*
X116657571Y-44330952D01*
X116705190Y-44283333D01*
X116800428Y-44235714D01*
X116943285Y-44235714D01*
X117038523Y-44283333D01*
X117086142Y-44330952D01*
X117133761Y-44426190D01*
X117133761Y-44711904D01*
X117086142Y-44807142D01*
X117038523Y-44854761D01*
X116943285Y-44902380D01*
X116800428Y-44902380D01*
X117562333Y-44902380D02*
X117562333Y-44235714D01*
X117562333Y-44330952D02*
X117609952Y-44283333D01*
X117705190Y-44235714D01*
X117848047Y-44235714D01*
X117943285Y-44283333D01*
X117990904Y-44378571D01*
X117990904Y-44902380D01*
X117990904Y-44378571D02*
X118038523Y-44283333D01*
X118133761Y-44235714D01*
X118276619Y-44235714D01*
X118371857Y-44283333D01*
X118419476Y-44378571D01*
X118419476Y-44902380D01*
X120086142Y-44854761D02*
X119990904Y-44902380D01*
X119800428Y-44902380D01*
X119705190Y-44854761D01*
X119657571Y-44807142D01*
X119609952Y-44711904D01*
X119609952Y-44426190D01*
X119657571Y-44330952D01*
X119705190Y-44283333D01*
X119800428Y-44235714D01*
X119990904Y-44235714D01*
X120086142Y-44283333D01*
X120657571Y-44902380D02*
X120562333Y-44854761D01*
X120514714Y-44807142D01*
X120467095Y-44711904D01*
X120467095Y-44426190D01*
X120514714Y-44330952D01*
X120562333Y-44283333D01*
X120657571Y-44235714D01*
X120800428Y-44235714D01*
X120895666Y-44283333D01*
X120943285Y-44330952D01*
X120990904Y-44426190D01*
X120990904Y-44711904D01*
X120943285Y-44807142D01*
X120895666Y-44854761D01*
X120800428Y-44902380D01*
X120657571Y-44902380D01*
X121419476Y-44902380D02*
X121419476Y-44235714D01*
X121419476Y-44330952D02*
X121467095Y-44283333D01*
X121562333Y-44235714D01*
X121705190Y-44235714D01*
X121800428Y-44283333D01*
X121848047Y-44378571D01*
X121848047Y-44902380D01*
X121848047Y-44378571D02*
X121895666Y-44283333D01*
X121990904Y-44235714D01*
X122133761Y-44235714D01*
X122229000Y-44283333D01*
X122276619Y-44378571D01*
X122276619Y-44902380D01*
X122752809Y-44235714D02*
X122752809Y-45235714D01*
X122752809Y-44283333D02*
X122848047Y-44235714D01*
X123038523Y-44235714D01*
X123133761Y-44283333D01*
X123181380Y-44330952D01*
X123229000Y-44426190D01*
X123229000Y-44711904D01*
X123181380Y-44807142D01*
X123133761Y-44854761D01*
X123038523Y-44902380D01*
X122848047Y-44902380D01*
X122752809Y-44854761D01*
X124086142Y-44235714D02*
X124086142Y-44902380D01*
X123657571Y-44235714D02*
X123657571Y-44759523D01*
X123705190Y-44854761D01*
X123800428Y-44902380D01*
X123943285Y-44902380D01*
X124038523Y-44854761D01*
X124086142Y-44807142D01*
X124419476Y-44235714D02*
X124800428Y-44235714D01*
X124562333Y-43902380D02*
X124562333Y-44759523D01*
X124609952Y-44854761D01*
X124705190Y-44902380D01*
X124800428Y-44902380D01*
X125514714Y-44854761D02*
X125419476Y-44902380D01*
X125229000Y-44902380D01*
X125133761Y-44854761D01*
X125086142Y-44759523D01*
X125086142Y-44378571D01*
X125133761Y-44283333D01*
X125229000Y-44235714D01*
X125419476Y-44235714D01*
X125514714Y-44283333D01*
X125562333Y-44378571D01*
X125562333Y-44473809D01*
X125086142Y-44569047D01*
X125990904Y-44902380D02*
X125990904Y-44235714D01*
X125990904Y-44426190D02*
X126038523Y-44330952D01*
X126086142Y-44283333D01*
X126181380Y-44235714D01*
X126276619Y-44235714D01*
X109339904Y-42362380D02*
X109339904Y-41362380D01*
X109578000Y-41362380D01*
X109720857Y-41410000D01*
X109816095Y-41505238D01*
X109863714Y-41600476D01*
X109911333Y-41790952D01*
X109911333Y-41933809D01*
X109863714Y-42124285D01*
X109816095Y-42219523D01*
X109720857Y-42314761D01*
X109578000Y-42362380D01*
X109339904Y-42362380D01*
X110720857Y-42314761D02*
X110625619Y-42362380D01*
X110435142Y-42362380D01*
X110339904Y-42314761D01*
X110292285Y-42219523D01*
X110292285Y-41838571D01*
X110339904Y-41743333D01*
X110435142Y-41695714D01*
X110625619Y-41695714D01*
X110720857Y-41743333D01*
X110768476Y-41838571D01*
X110768476Y-41933809D01*
X110292285Y-42029047D01*
X111197047Y-41695714D02*
X111197047Y-42362380D01*
X111197047Y-41790952D02*
X111244666Y-41743333D01*
X111339904Y-41695714D01*
X111482761Y-41695714D01*
X111578000Y-41743333D01*
X111625619Y-41838571D01*
X111625619Y-42362380D01*
X112054190Y-42314761D02*
X112149428Y-42362380D01*
X112339904Y-42362380D01*
X112435142Y-42314761D01*
X112482761Y-42219523D01*
X112482761Y-42171904D01*
X112435142Y-42076666D01*
X112339904Y-42029047D01*
X112197047Y-42029047D01*
X112101809Y-41981428D01*
X112054190Y-41886190D01*
X112054190Y-41838571D01*
X112101809Y-41743333D01*
X112197047Y-41695714D01*
X112339904Y-41695714D01*
X112435142Y-41743333D01*
X112911333Y-42362380D02*
X112911333Y-41695714D01*
X112911333Y-41362380D02*
X112863714Y-41410000D01*
X112911333Y-41457619D01*
X112958952Y-41410000D01*
X112911333Y-41362380D01*
X112911333Y-41457619D01*
X113244666Y-41695714D02*
X113625619Y-41695714D01*
X113387523Y-41362380D02*
X113387523Y-42219523D01*
X113435142Y-42314761D01*
X113530380Y-42362380D01*
X113625619Y-42362380D01*
X113863714Y-41695714D02*
X114101809Y-42362380D01*
X114339904Y-41695714D02*
X114101809Y-42362380D01*
X114006571Y-42600476D01*
X113958952Y-42648095D01*
X113863714Y-42695714D01*
X115339904Y-41695714D02*
X115720857Y-41695714D01*
X115482761Y-42362380D02*
X115482761Y-41505238D01*
X115530380Y-41410000D01*
X115625619Y-41362380D01*
X115720857Y-41362380D01*
X116054190Y-42362380D02*
X116054190Y-41695714D01*
X116054190Y-41886190D02*
X116101809Y-41790952D01*
X116149428Y-41743333D01*
X116244666Y-41695714D01*
X116339904Y-41695714D01*
X116816095Y-42362380D02*
X116720857Y-42314761D01*
X116673238Y-42267142D01*
X116625619Y-42171904D01*
X116625619Y-41886190D01*
X116673238Y-41790952D01*
X116720857Y-41743333D01*
X116816095Y-41695714D01*
X116958952Y-41695714D01*
X117054190Y-41743333D01*
X117101809Y-41790952D01*
X117149428Y-41886190D01*
X117149428Y-42171904D01*
X117101809Y-42267142D01*
X117054190Y-42314761D01*
X116958952Y-42362380D01*
X116816095Y-42362380D01*
X117578000Y-42362380D02*
X117578000Y-41695714D01*
X117578000Y-41790952D02*
X117625619Y-41743333D01*
X117720857Y-41695714D01*
X117863714Y-41695714D01*
X117958952Y-41743333D01*
X118006571Y-41838571D01*
X118006571Y-42362380D01*
X118006571Y-41838571D02*
X118054190Y-41743333D01*
X118149428Y-41695714D01*
X118292285Y-41695714D01*
X118387523Y-41743333D01*
X118435142Y-41838571D01*
X118435142Y-42362380D01*
X120101809Y-42362380D02*
X120101809Y-41362380D01*
X120101809Y-42314761D02*
X120006571Y-42362380D01*
X119816095Y-42362380D01*
X119720857Y-42314761D01*
X119673238Y-42267142D01*
X119625619Y-42171904D01*
X119625619Y-41886190D01*
X119673238Y-41790952D01*
X119720857Y-41743333D01*
X119816095Y-41695714D01*
X120006571Y-41695714D01*
X120101809Y-41743333D01*
X120578000Y-42362380D02*
X120578000Y-41695714D01*
X120578000Y-41886190D02*
X120625619Y-41790952D01*
X120673238Y-41743333D01*
X120768476Y-41695714D01*
X120863714Y-41695714D01*
X121197047Y-42362380D02*
X121197047Y-41695714D01*
X121197047Y-41362380D02*
X121149428Y-41410000D01*
X121197047Y-41457619D01*
X121244666Y-41410000D01*
X121197047Y-41362380D01*
X121197047Y-41457619D01*
X121578000Y-41695714D02*
X121816095Y-42362380D01*
X122054190Y-41695714D01*
X122816095Y-42314761D02*
X122720857Y-42362380D01*
X122530380Y-42362380D01*
X122435142Y-42314761D01*
X122387523Y-42219523D01*
X122387523Y-41838571D01*
X122435142Y-41743333D01*
X122530380Y-41695714D01*
X122720857Y-41695714D01*
X122816095Y-41743333D01*
X122863714Y-41838571D01*
X122863714Y-41933809D01*
X122387523Y-42029047D01*
X102894380Y-59591380D02*
X102894380Y-58591380D01*
X103132476Y-58591380D01*
X103275333Y-58639000D01*
X103370571Y-58734238D01*
X103418190Y-58829476D01*
X103465809Y-59019952D01*
X103465809Y-59162809D01*
X103418190Y-59353285D01*
X103370571Y-59448523D01*
X103275333Y-59543761D01*
X103132476Y-59591380D01*
X102894380Y-59591380D01*
X104275333Y-59543761D02*
X104180095Y-59591380D01*
X103989619Y-59591380D01*
X103894380Y-59543761D01*
X103846761Y-59448523D01*
X103846761Y-59067571D01*
X103894380Y-58972333D01*
X103989619Y-58924714D01*
X104180095Y-58924714D01*
X104275333Y-58972333D01*
X104322952Y-59067571D01*
X104322952Y-59162809D01*
X103846761Y-59258047D01*
X104751523Y-58924714D02*
X104751523Y-59591380D01*
X104751523Y-59019952D02*
X104799142Y-58972333D01*
X104894380Y-58924714D01*
X105037238Y-58924714D01*
X105132476Y-58972333D01*
X105180095Y-59067571D01*
X105180095Y-59591380D01*
X105608666Y-59543761D02*
X105703904Y-59591380D01*
X105894380Y-59591380D01*
X105989619Y-59543761D01*
X106037238Y-59448523D01*
X106037238Y-59400904D01*
X105989619Y-59305666D01*
X105894380Y-59258047D01*
X105751523Y-59258047D01*
X105656285Y-59210428D01*
X105608666Y-59115190D01*
X105608666Y-59067571D01*
X105656285Y-58972333D01*
X105751523Y-58924714D01*
X105894380Y-58924714D01*
X105989619Y-58972333D01*
X106465809Y-59591380D02*
X106465809Y-58924714D01*
X106465809Y-58591380D02*
X106418190Y-58639000D01*
X106465809Y-58686619D01*
X106513428Y-58639000D01*
X106465809Y-58591380D01*
X106465809Y-58686619D01*
X106799142Y-58924714D02*
X107180095Y-58924714D01*
X106942000Y-58591380D02*
X106942000Y-59448523D01*
X106989619Y-59543761D01*
X107084857Y-59591380D01*
X107180095Y-59591380D01*
X107418190Y-58924714D02*
X107656285Y-59591380D01*
X107894380Y-58924714D02*
X107656285Y-59591380D01*
X107561047Y-59829476D01*
X107513428Y-59877095D01*
X107418190Y-59924714D01*
X108894380Y-58924714D02*
X109275333Y-58924714D01*
X109037238Y-59591380D02*
X109037238Y-58734238D01*
X109084857Y-58639000D01*
X109180095Y-58591380D01*
X109275333Y-58591380D01*
X109608666Y-59591380D02*
X109608666Y-58924714D01*
X109608666Y-59115190D02*
X109656285Y-59019952D01*
X109703904Y-58972333D01*
X109799142Y-58924714D01*
X109894380Y-58924714D01*
X110370571Y-59591380D02*
X110275333Y-59543761D01*
X110227714Y-59496142D01*
X110180095Y-59400904D01*
X110180095Y-59115190D01*
X110227714Y-59019952D01*
X110275333Y-58972333D01*
X110370571Y-58924714D01*
X110513428Y-58924714D01*
X110608666Y-58972333D01*
X110656285Y-59019952D01*
X110703904Y-59115190D01*
X110703904Y-59400904D01*
X110656285Y-59496142D01*
X110608666Y-59543761D01*
X110513428Y-59591380D01*
X110370571Y-59591380D01*
X111132476Y-59591380D02*
X111132476Y-58924714D01*
X111132476Y-59019952D02*
X111180095Y-58972333D01*
X111275333Y-58924714D01*
X111418190Y-58924714D01*
X111513428Y-58972333D01*
X111561047Y-59067571D01*
X111561047Y-59591380D01*
X111561047Y-59067571D02*
X111608666Y-58972333D01*
X111703904Y-58924714D01*
X111846761Y-58924714D01*
X111942000Y-58972333D01*
X111989619Y-59067571D01*
X111989619Y-59591380D01*
X106299142Y-61201380D02*
X106299142Y-60201380D01*
X106299142Y-61153761D02*
X106203904Y-61201380D01*
X106013428Y-61201380D01*
X105918190Y-61153761D01*
X105870571Y-61106142D01*
X105822952Y-61010904D01*
X105822952Y-60725190D01*
X105870571Y-60629952D01*
X105918190Y-60582333D01*
X106013428Y-60534714D01*
X106203904Y-60534714D01*
X106299142Y-60582333D01*
X106775333Y-61201380D02*
X106775333Y-60534714D01*
X106775333Y-60725190D02*
X106822952Y-60629952D01*
X106870571Y-60582333D01*
X106965809Y-60534714D01*
X107061047Y-60534714D01*
X107394380Y-61201380D02*
X107394380Y-60534714D01*
X107394380Y-60201380D02*
X107346761Y-60249000D01*
X107394380Y-60296619D01*
X107442000Y-60249000D01*
X107394380Y-60201380D01*
X107394380Y-60296619D01*
X107775333Y-60534714D02*
X108013428Y-61201380D01*
X108251523Y-60534714D01*
X109013428Y-61153761D02*
X108918190Y-61201380D01*
X108727714Y-61201380D01*
X108632476Y-61153761D01*
X108584857Y-61058523D01*
X108584857Y-60677571D01*
X108632476Y-60582333D01*
X108727714Y-60534714D01*
X108918190Y-60534714D01*
X109013428Y-60582333D01*
X109061047Y-60677571D01*
X109061047Y-60772809D01*
X108584857Y-60868047D01*
X123968095Y-37536428D02*
X124730000Y-37536428D01*
X124349047Y-37917380D02*
X124349047Y-37155476D01*
X125730000Y-37917380D02*
X125158571Y-37917380D01*
X125444285Y-37917380D02*
X125444285Y-36917380D01*
X125349047Y-37060238D01*
X125253809Y-37155476D01*
X125158571Y-37203095D01*
X126110952Y-37012619D02*
X126158571Y-36965000D01*
X126253809Y-36917380D01*
X126491904Y-36917380D01*
X126587142Y-36965000D01*
X126634761Y-37012619D01*
X126682380Y-37107857D01*
X126682380Y-37203095D01*
X126634761Y-37345952D01*
X126063333Y-37917380D01*
X126682380Y-37917380D01*
X126968095Y-36917380D02*
X127301428Y-37917380D01*
X127634761Y-36917380D01*
X131429285Y-45146428D02*
X132191190Y-45146428D01*
X131810238Y-45527380D02*
X131810238Y-44765476D01*
X133143571Y-44527380D02*
X132667380Y-44527380D01*
X132619761Y-45003571D01*
X132667380Y-44955952D01*
X132762619Y-44908333D01*
X133000714Y-44908333D01*
X133095952Y-44955952D01*
X133143571Y-45003571D01*
X133191190Y-45098809D01*
X133191190Y-45336904D01*
X133143571Y-45432142D01*
X133095952Y-45479761D01*
X133000714Y-45527380D01*
X132762619Y-45527380D01*
X132667380Y-45479761D01*
X132619761Y-45432142D01*
X133476904Y-44527380D02*
X133810238Y-45527380D01*
X134143571Y-44527380D01*
%TO.C,JP2*%
X102957380Y-57348333D02*
X103671666Y-57348333D01*
X103814523Y-57395952D01*
X103909761Y-57491190D01*
X103957380Y-57634047D01*
X103957380Y-57729285D01*
X103957380Y-56872142D02*
X102957380Y-56872142D01*
X102957380Y-56491190D01*
X103005000Y-56395952D01*
X103052619Y-56348333D01*
X103147857Y-56300714D01*
X103290714Y-56300714D01*
X103385952Y-56348333D01*
X103433571Y-56395952D01*
X103481190Y-56491190D01*
X103481190Y-56872142D01*
X103052619Y-55919761D02*
X103005000Y-55872142D01*
X102957380Y-55776904D01*
X102957380Y-55538809D01*
X103005000Y-55443571D01*
X103052619Y-55395952D01*
X103147857Y-55348333D01*
X103243095Y-55348333D01*
X103385952Y-55395952D01*
X103957380Y-55967380D01*
X103957380Y-55348333D01*
%TO.C,J1*%
X96704166Y-47962380D02*
X96704166Y-48676666D01*
X96656547Y-48819523D01*
X96561309Y-48914761D01*
X96418452Y-48962380D01*
X96323214Y-48962380D01*
X97704166Y-48962380D02*
X97132738Y-48962380D01*
X97418452Y-48962380D02*
X97418452Y-47962380D01*
X97323214Y-48105238D01*
X97227976Y-48200476D01*
X97132738Y-48248095D01*
X91257380Y-98773095D02*
X90257380Y-98773095D01*
X90257380Y-98392142D01*
X90305000Y-98296904D01*
X90352619Y-98249285D01*
X90447857Y-98201666D01*
X90590714Y-98201666D01*
X90685952Y-98249285D01*
X90733571Y-98296904D01*
X90781190Y-98392142D01*
X90781190Y-98773095D01*
X91209761Y-97820714D02*
X91257380Y-97677857D01*
X91257380Y-97439761D01*
X91209761Y-97344523D01*
X91162142Y-97296904D01*
X91066904Y-97249285D01*
X90971666Y-97249285D01*
X90876428Y-97296904D01*
X90828809Y-97344523D01*
X90781190Y-97439761D01*
X90733571Y-97630238D01*
X90685952Y-97725476D01*
X90638333Y-97773095D01*
X90543095Y-97820714D01*
X90447857Y-97820714D01*
X90352619Y-97773095D01*
X90305000Y-97725476D01*
X90257380Y-97630238D01*
X90257380Y-97392142D01*
X90305000Y-97249285D01*
X90209761Y-96106428D02*
X91495476Y-96963571D01*
X90352619Y-95820714D02*
X90305000Y-95773095D01*
X90257380Y-95677857D01*
X90257380Y-95439761D01*
X90305000Y-95344523D01*
X90352619Y-95296904D01*
X90447857Y-95249285D01*
X90543095Y-95249285D01*
X90685952Y-95296904D01*
X91257380Y-95868333D01*
X91257380Y-95249285D01*
X91257380Y-94058809D02*
X90257380Y-94058809D01*
X90971666Y-93725476D01*
X90257380Y-93392142D01*
X91257380Y-93392142D01*
X91209761Y-92535000D02*
X91257380Y-92630238D01*
X91257380Y-92820714D01*
X91209761Y-92915952D01*
X91114523Y-92963571D01*
X90733571Y-92963571D01*
X90638333Y-92915952D01*
X90590714Y-92820714D01*
X90590714Y-92630238D01*
X90638333Y-92535000D01*
X90733571Y-92487380D01*
X90828809Y-92487380D01*
X90924047Y-92963571D01*
X91257380Y-91630238D02*
X90257380Y-91630238D01*
X91209761Y-91630238D02*
X91257380Y-91725476D01*
X91257380Y-91915952D01*
X91209761Y-92011190D01*
X91162142Y-92058809D01*
X91066904Y-92106428D01*
X90781190Y-92106428D01*
X90685952Y-92058809D01*
X90638333Y-92011190D01*
X90590714Y-91915952D01*
X90590714Y-91725476D01*
X90638333Y-91630238D01*
X91257380Y-91154047D02*
X90590714Y-91154047D01*
X90257380Y-91154047D02*
X90305000Y-91201666D01*
X90352619Y-91154047D01*
X90305000Y-91106428D01*
X90257380Y-91154047D01*
X90352619Y-91154047D01*
X91257380Y-90249285D02*
X90733571Y-90249285D01*
X90638333Y-90296904D01*
X90590714Y-90392142D01*
X90590714Y-90582619D01*
X90638333Y-90677857D01*
X91209761Y-90249285D02*
X91257380Y-90344523D01*
X91257380Y-90582619D01*
X91209761Y-90677857D01*
X91114523Y-90725476D01*
X91019285Y-90725476D01*
X90924047Y-90677857D01*
X90876428Y-90582619D01*
X90876428Y-90344523D01*
X90828809Y-90249285D01*
X91209761Y-89058809D02*
X91257380Y-88915952D01*
X91257380Y-88677857D01*
X91209761Y-88582619D01*
X91162142Y-88535000D01*
X91066904Y-88487380D01*
X90971666Y-88487380D01*
X90876428Y-88535000D01*
X90828809Y-88582619D01*
X90781190Y-88677857D01*
X90733571Y-88868333D01*
X90685952Y-88963571D01*
X90638333Y-89011190D01*
X90543095Y-89058809D01*
X90447857Y-89058809D01*
X90352619Y-89011190D01*
X90305000Y-88963571D01*
X90257380Y-88868333D01*
X90257380Y-88630238D01*
X90305000Y-88487380D01*
X91209761Y-87677857D02*
X91257380Y-87773095D01*
X91257380Y-87963571D01*
X91209761Y-88058809D01*
X91114523Y-88106428D01*
X90733571Y-88106428D01*
X90638333Y-88058809D01*
X90590714Y-87963571D01*
X90590714Y-87773095D01*
X90638333Y-87677857D01*
X90733571Y-87630238D01*
X90828809Y-87630238D01*
X90924047Y-88106428D01*
X90590714Y-87201666D02*
X91257380Y-87201666D01*
X90685952Y-87201666D02*
X90638333Y-87154047D01*
X90590714Y-87058809D01*
X90590714Y-86915952D01*
X90638333Y-86820714D01*
X90733571Y-86773095D01*
X91257380Y-86773095D01*
X91209761Y-86344523D02*
X91257380Y-86249285D01*
X91257380Y-86058809D01*
X91209761Y-85963571D01*
X91114523Y-85915952D01*
X91066904Y-85915952D01*
X90971666Y-85963571D01*
X90924047Y-86058809D01*
X90924047Y-86201666D01*
X90876428Y-86296904D01*
X90781190Y-86344523D01*
X90733571Y-86344523D01*
X90638333Y-86296904D01*
X90590714Y-86201666D01*
X90590714Y-86058809D01*
X90638333Y-85963571D01*
X91209761Y-85106428D02*
X91257380Y-85201666D01*
X91257380Y-85392142D01*
X91209761Y-85487380D01*
X91114523Y-85535000D01*
X90733571Y-85535000D01*
X90638333Y-85487380D01*
X90590714Y-85392142D01*
X90590714Y-85201666D01*
X90638333Y-85106428D01*
X90733571Y-85058809D01*
X90828809Y-85058809D01*
X90924047Y-85535000D01*
X91209761Y-83439761D02*
X91257380Y-83535000D01*
X91257380Y-83725476D01*
X91209761Y-83820714D01*
X91162142Y-83868333D01*
X91066904Y-83915952D01*
X90781190Y-83915952D01*
X90685952Y-83868333D01*
X90638333Y-83820714D01*
X90590714Y-83725476D01*
X90590714Y-83535000D01*
X90638333Y-83439761D01*
X91257380Y-82582619D02*
X90733571Y-82582619D01*
X90638333Y-82630238D01*
X90590714Y-82725476D01*
X90590714Y-82915952D01*
X90638333Y-83011190D01*
X91209761Y-82582619D02*
X91257380Y-82677857D01*
X91257380Y-82915952D01*
X91209761Y-83011190D01*
X91114523Y-83058809D01*
X91019285Y-83058809D01*
X90924047Y-83011190D01*
X90876428Y-82915952D01*
X90876428Y-82677857D01*
X90828809Y-82582619D01*
X91257380Y-82106428D02*
X90257380Y-82106428D01*
X90638333Y-82106428D02*
X90590714Y-82011190D01*
X90590714Y-81820714D01*
X90638333Y-81725476D01*
X90685952Y-81677857D01*
X90781190Y-81630238D01*
X91066904Y-81630238D01*
X91162142Y-81677857D01*
X91209761Y-81725476D01*
X91257380Y-81820714D01*
X91257380Y-82011190D01*
X91209761Y-82106428D01*
X91257380Y-81058809D02*
X91209761Y-81154047D01*
X91114523Y-81201666D01*
X90257380Y-81201666D01*
X91209761Y-80296904D02*
X91257380Y-80392142D01*
X91257380Y-80582619D01*
X91209761Y-80677857D01*
X91114523Y-80725476D01*
X90733571Y-80725476D01*
X90638333Y-80677857D01*
X90590714Y-80582619D01*
X90590714Y-80392142D01*
X90638333Y-80296904D01*
X90733571Y-80249285D01*
X90828809Y-80249285D01*
X90924047Y-80725476D01*
%TO.C,JP4*%
X102957380Y-71318333D02*
X103671666Y-71318333D01*
X103814523Y-71365952D01*
X103909761Y-71461190D01*
X103957380Y-71604047D01*
X103957380Y-71699285D01*
X103957380Y-70842142D02*
X102957380Y-70842142D01*
X102957380Y-70461190D01*
X103005000Y-70365952D01*
X103052619Y-70318333D01*
X103147857Y-70270714D01*
X103290714Y-70270714D01*
X103385952Y-70318333D01*
X103433571Y-70365952D01*
X103481190Y-70461190D01*
X103481190Y-70842142D01*
X103290714Y-69413571D02*
X103957380Y-69413571D01*
X102909761Y-69651666D02*
X103624047Y-69889761D01*
X103624047Y-69270714D01*
X103172142Y-73207619D02*
X103219761Y-73160000D01*
X103315000Y-73112380D01*
X103553095Y-73112380D01*
X103648333Y-73160000D01*
X103695952Y-73207619D01*
X103743571Y-73302857D01*
X103743571Y-73398095D01*
X103695952Y-73540952D01*
X103124523Y-74112380D01*
X103743571Y-74112380D01*
X104172142Y-74017142D02*
X104219761Y-74064761D01*
X104172142Y-74112380D01*
X104124523Y-74064761D01*
X104172142Y-74017142D01*
X104172142Y-74112380D01*
X104791190Y-73540952D02*
X104695952Y-73493333D01*
X104648333Y-73445714D01*
X104600714Y-73350476D01*
X104600714Y-73302857D01*
X104648333Y-73207619D01*
X104695952Y-73160000D01*
X104791190Y-73112380D01*
X104981666Y-73112380D01*
X105076904Y-73160000D01*
X105124523Y-73207619D01*
X105172142Y-73302857D01*
X105172142Y-73350476D01*
X105124523Y-73445714D01*
X105076904Y-73493333D01*
X104981666Y-73540952D01*
X104791190Y-73540952D01*
X104695952Y-73588571D01*
X104648333Y-73636190D01*
X104600714Y-73731428D01*
X104600714Y-73921904D01*
X104648333Y-74017142D01*
X104695952Y-74064761D01*
X104791190Y-74112380D01*
X104981666Y-74112380D01*
X105076904Y-74064761D01*
X105124523Y-74017142D01*
X105172142Y-73921904D01*
X105172142Y-73731428D01*
X105124523Y-73636190D01*
X105076904Y-73588571D01*
X104981666Y-73540952D01*
X105743571Y-73540952D02*
X105648333Y-73493333D01*
X105600714Y-73445714D01*
X105553095Y-73350476D01*
X105553095Y-73302857D01*
X105600714Y-73207619D01*
X105648333Y-73160000D01*
X105743571Y-73112380D01*
X105934047Y-73112380D01*
X106029285Y-73160000D01*
X106076904Y-73207619D01*
X106124523Y-73302857D01*
X106124523Y-73350476D01*
X106076904Y-73445714D01*
X106029285Y-73493333D01*
X105934047Y-73540952D01*
X105743571Y-73540952D01*
X105648333Y-73588571D01*
X105600714Y-73636190D01*
X105553095Y-73731428D01*
X105553095Y-73921904D01*
X105600714Y-74017142D01*
X105648333Y-74064761D01*
X105743571Y-74112380D01*
X105934047Y-74112380D01*
X106029285Y-74064761D01*
X106076904Y-74017142D01*
X106124523Y-73921904D01*
X106124523Y-73731428D01*
X106076904Y-73636190D01*
X106029285Y-73588571D01*
X105934047Y-73540952D01*
X107172142Y-73445714D02*
X107553095Y-73445714D01*
X107315000Y-74112380D02*
X107315000Y-73255238D01*
X107362619Y-73160000D01*
X107457857Y-73112380D01*
X107553095Y-73112380D01*
X108029285Y-74112380D02*
X107934047Y-74064761D01*
X107886428Y-73969523D01*
X107886428Y-73112380D01*
X108553095Y-74112380D02*
X108457857Y-74064761D01*
X108410238Y-74017142D01*
X108362619Y-73921904D01*
X108362619Y-73636190D01*
X108410238Y-73540952D01*
X108457857Y-73493333D01*
X108553095Y-73445714D01*
X108695952Y-73445714D01*
X108791190Y-73493333D01*
X108838809Y-73540952D01*
X108886428Y-73636190D01*
X108886428Y-73921904D01*
X108838809Y-74017142D01*
X108791190Y-74064761D01*
X108695952Y-74112380D01*
X108553095Y-74112380D01*
X109315000Y-73445714D02*
X109315000Y-74445714D01*
X109315000Y-73493333D02*
X109410238Y-73445714D01*
X109600714Y-73445714D01*
X109695952Y-73493333D01*
X109743571Y-73540952D01*
X109791190Y-73636190D01*
X109791190Y-73921904D01*
X109743571Y-74017142D01*
X109695952Y-74064761D01*
X109600714Y-74112380D01*
X109410238Y-74112380D01*
X109315000Y-74064761D01*
X110219761Y-73445714D02*
X110219761Y-74445714D01*
X110219761Y-73493333D02*
X110315000Y-73445714D01*
X110505476Y-73445714D01*
X110600714Y-73493333D01*
X110648333Y-73540952D01*
X110695952Y-73636190D01*
X110695952Y-73921904D01*
X110648333Y-74017142D01*
X110600714Y-74064761D01*
X110505476Y-74112380D01*
X110315000Y-74112380D01*
X110219761Y-74064761D01*
X111029285Y-73445714D02*
X111267380Y-74112380D01*
X111505476Y-73445714D02*
X111267380Y-74112380D01*
X111172142Y-74350476D01*
X111124523Y-74398095D01*
X111029285Y-74445714D01*
%TO.C,U1*%
X117983095Y-49192380D02*
X117983095Y-50001904D01*
X118030714Y-50097142D01*
X118078333Y-50144761D01*
X118173571Y-50192380D01*
X118364047Y-50192380D01*
X118459285Y-50144761D01*
X118506904Y-50097142D01*
X118554523Y-50001904D01*
X118554523Y-49192380D01*
X119554523Y-50192380D02*
X118983095Y-50192380D01*
X119268809Y-50192380D02*
X119268809Y-49192380D01*
X119173571Y-49335238D01*
X119078333Y-49430476D01*
X118983095Y-49478095D01*
X118422800Y-66284171D02*
X118375180Y-66379409D01*
X118375180Y-66522266D01*
X118422800Y-66665123D01*
X118518038Y-66760361D01*
X118613276Y-66807980D01*
X118803752Y-66855600D01*
X118946609Y-66855600D01*
X119137085Y-66807980D01*
X119232323Y-66760361D01*
X119327561Y-66665123D01*
X119375180Y-66522266D01*
X119375180Y-66427028D01*
X119327561Y-66284171D01*
X119279942Y-66236552D01*
X118946609Y-66236552D01*
X118946609Y-66427028D01*
X119089466Y-65855600D02*
X119089466Y-65379409D01*
X119375180Y-65950838D02*
X118375180Y-65617504D01*
X119375180Y-65284171D01*
X119375180Y-64474647D02*
X119375180Y-64950838D01*
X118375180Y-64950838D01*
X119375180Y-63617504D02*
X119375180Y-64188933D01*
X119375180Y-63903219D02*
X118375180Y-63903219D01*
X118518038Y-63998457D01*
X118613276Y-64093695D01*
X118660895Y-64188933D01*
X118375180Y-62760361D02*
X118375180Y-62950838D01*
X118422800Y-63046076D01*
X118470419Y-63093695D01*
X118613276Y-63188933D01*
X118803752Y-63236552D01*
X119184704Y-63236552D01*
X119279942Y-63188933D01*
X119327561Y-63141314D01*
X119375180Y-63046076D01*
X119375180Y-62855600D01*
X119327561Y-62760361D01*
X119279942Y-62712742D01*
X119184704Y-62665123D01*
X118946609Y-62665123D01*
X118851371Y-62712742D01*
X118803752Y-62760361D01*
X118756133Y-62855600D01*
X118756133Y-63046076D01*
X118803752Y-63141314D01*
X118851371Y-63188933D01*
X118946609Y-63236552D01*
X118375180Y-62379409D02*
X119375180Y-62046076D01*
X118375180Y-61712742D01*
X118803752Y-61236552D02*
X118756133Y-61331790D01*
X118708514Y-61379409D01*
X118613276Y-61427028D01*
X118565657Y-61427028D01*
X118470419Y-61379409D01*
X118422800Y-61331790D01*
X118375180Y-61236552D01*
X118375180Y-61046076D01*
X118422800Y-60950838D01*
X118470419Y-60903219D01*
X118565657Y-60855600D01*
X118613276Y-60855600D01*
X118708514Y-60903219D01*
X118756133Y-60950838D01*
X118803752Y-61046076D01*
X118803752Y-61236552D01*
X118851371Y-61331790D01*
X118898990Y-61379409D01*
X118994228Y-61427028D01*
X119184704Y-61427028D01*
X119279942Y-61379409D01*
X119327561Y-61331790D01*
X119375180Y-61236552D01*
X119375180Y-61046076D01*
X119327561Y-60950838D01*
X119279942Y-60903219D01*
X119184704Y-60855600D01*
X118994228Y-60855600D01*
X118898990Y-60903219D01*
X118851371Y-60950838D01*
X118803752Y-61046076D01*
%TO.C,J3*%
X125992380Y-35577380D02*
X125992380Y-34577380D01*
X126373333Y-34577380D01*
X126468571Y-34625000D01*
X126516190Y-34672619D01*
X126563809Y-34767857D01*
X126563809Y-34910714D01*
X126516190Y-35005952D01*
X126468571Y-35053571D01*
X126373333Y-35101190D01*
X125992380Y-35101190D01*
X127135238Y-35577380D02*
X127040000Y-35529761D01*
X126992380Y-35482142D01*
X126944761Y-35386904D01*
X126944761Y-35101190D01*
X126992380Y-35005952D01*
X127040000Y-34958333D01*
X127135238Y-34910714D01*
X127278095Y-34910714D01*
X127373333Y-34958333D01*
X127420952Y-35005952D01*
X127468571Y-35101190D01*
X127468571Y-35386904D01*
X127420952Y-35482142D01*
X127373333Y-35529761D01*
X127278095Y-35577380D01*
X127135238Y-35577380D01*
X127801904Y-34910714D02*
X127992380Y-35577380D01*
X128182857Y-35101190D01*
X128373333Y-35577380D01*
X128563809Y-34910714D01*
X129325714Y-35529761D02*
X129230476Y-35577380D01*
X129040000Y-35577380D01*
X128944761Y-35529761D01*
X128897142Y-35434523D01*
X128897142Y-35053571D01*
X128944761Y-34958333D01*
X129040000Y-34910714D01*
X129230476Y-34910714D01*
X129325714Y-34958333D01*
X129373333Y-35053571D01*
X129373333Y-35148809D01*
X128897142Y-35244047D01*
X129801904Y-35577380D02*
X129801904Y-34910714D01*
X129801904Y-35101190D02*
X129849523Y-35005952D01*
X129897142Y-34958333D01*
X129992380Y-34910714D01*
X130087619Y-34910714D01*
X131325714Y-35577380D02*
X131230476Y-35529761D01*
X131182857Y-35482142D01*
X131135238Y-35386904D01*
X131135238Y-35101190D01*
X131182857Y-35005952D01*
X131230476Y-34958333D01*
X131325714Y-34910714D01*
X131468571Y-34910714D01*
X131563809Y-34958333D01*
X131611428Y-35005952D01*
X131659047Y-35101190D01*
X131659047Y-35386904D01*
X131611428Y-35482142D01*
X131563809Y-35529761D01*
X131468571Y-35577380D01*
X131325714Y-35577380D01*
X132516190Y-34910714D02*
X132516190Y-35577380D01*
X132087619Y-34910714D02*
X132087619Y-35434523D01*
X132135238Y-35529761D01*
X132230476Y-35577380D01*
X132373333Y-35577380D01*
X132468571Y-35529761D01*
X132516190Y-35482142D01*
X132849523Y-34910714D02*
X133230476Y-34910714D01*
X132992380Y-34577380D02*
X132992380Y-35434523D01*
X133040000Y-35529761D01*
X133135238Y-35577380D01*
X133230476Y-35577380D01*
%TO.C,J2*%
X133016666Y-47962380D02*
X133016666Y-48676666D01*
X132969047Y-48819523D01*
X132873809Y-48914761D01*
X132730952Y-48962380D01*
X132635714Y-48962380D01*
X133445238Y-48057619D02*
X133492857Y-48010000D01*
X133588095Y-47962380D01*
X133826190Y-47962380D01*
X133921428Y-48010000D01*
X133969047Y-48057619D01*
X134016666Y-48152857D01*
X134016666Y-48248095D01*
X133969047Y-48390952D01*
X133397619Y-48962380D01*
X134016666Y-48962380D01*
X139628571Y-98027619D02*
X139628571Y-98360952D01*
X140152380Y-98360952D02*
X139152380Y-98360952D01*
X139152380Y-97884761D01*
X140152380Y-97360952D02*
X140104761Y-97456190D01*
X140009523Y-97503809D01*
X139152380Y-97503809D01*
X140152380Y-96837142D02*
X140104761Y-96932380D01*
X140057142Y-96980000D01*
X139961904Y-97027619D01*
X139676190Y-97027619D01*
X139580952Y-96980000D01*
X139533333Y-96932380D01*
X139485714Y-96837142D01*
X139485714Y-96694285D01*
X139533333Y-96599047D01*
X139580952Y-96551428D01*
X139676190Y-96503809D01*
X139961904Y-96503809D01*
X140057142Y-96551428D01*
X140104761Y-96599047D01*
X140152380Y-96694285D01*
X140152380Y-96837142D01*
X139485714Y-96075238D02*
X140485714Y-96075238D01*
X139533333Y-96075238D02*
X139485714Y-95980000D01*
X139485714Y-95789523D01*
X139533333Y-95694285D01*
X139580952Y-95646666D01*
X139676190Y-95599047D01*
X139961904Y-95599047D01*
X140057142Y-95646666D01*
X140104761Y-95694285D01*
X140152380Y-95789523D01*
X140152380Y-95980000D01*
X140104761Y-96075238D01*
X139485714Y-95170476D02*
X140485714Y-95170476D01*
X139533333Y-95170476D02*
X139485714Y-95075238D01*
X139485714Y-94884761D01*
X139533333Y-94789523D01*
X139580952Y-94741904D01*
X139676190Y-94694285D01*
X139961904Y-94694285D01*
X140057142Y-94741904D01*
X140104761Y-94789523D01*
X140152380Y-94884761D01*
X140152380Y-95075238D01*
X140104761Y-95170476D01*
X139485714Y-94360952D02*
X140152380Y-94122857D01*
X139485714Y-93884761D02*
X140152380Y-94122857D01*
X140390476Y-94218095D01*
X140438095Y-94265714D01*
X140485714Y-94360952D01*
X140152380Y-92313333D02*
X139152380Y-92313333D01*
X140104761Y-92313333D02*
X140152380Y-92408571D01*
X140152380Y-92599047D01*
X140104761Y-92694285D01*
X140057142Y-92741904D01*
X139961904Y-92789523D01*
X139676190Y-92789523D01*
X139580952Y-92741904D01*
X139533333Y-92694285D01*
X139485714Y-92599047D01*
X139485714Y-92408571D01*
X139533333Y-92313333D01*
X140152380Y-91837142D02*
X139485714Y-91837142D01*
X139676190Y-91837142D02*
X139580952Y-91789523D01*
X139533333Y-91741904D01*
X139485714Y-91646666D01*
X139485714Y-91551428D01*
X140152380Y-91218095D02*
X139485714Y-91218095D01*
X139152380Y-91218095D02*
X139200000Y-91265714D01*
X139247619Y-91218095D01*
X139200000Y-91170476D01*
X139152380Y-91218095D01*
X139247619Y-91218095D01*
X139485714Y-90837142D02*
X140152380Y-90599047D01*
X139485714Y-90360952D01*
X140104761Y-89599047D02*
X140152380Y-89694285D01*
X140152380Y-89884761D01*
X140104761Y-89980000D01*
X140009523Y-90027619D01*
X139628571Y-90027619D01*
X139533333Y-89980000D01*
X139485714Y-89884761D01*
X139485714Y-89694285D01*
X139533333Y-89599047D01*
X139628571Y-89551428D01*
X139723809Y-89551428D01*
X139819047Y-90027619D01*
%TO.C,JP3*%
X102957380Y-64333333D02*
X103671666Y-64333333D01*
X103814523Y-64380952D01*
X103909761Y-64476190D01*
X103957380Y-64619047D01*
X103957380Y-64714285D01*
X103957380Y-63857142D02*
X102957380Y-63857142D01*
X102957380Y-63476190D01*
X103005000Y-63380952D01*
X103052619Y-63333333D01*
X103147857Y-63285714D01*
X103290714Y-63285714D01*
X103385952Y-63333333D01*
X103433571Y-63380952D01*
X103481190Y-63476190D01*
X103481190Y-63857142D01*
X102957380Y-62952380D02*
X102957380Y-62333333D01*
X103338333Y-62666666D01*
X103338333Y-62523809D01*
X103385952Y-62428571D01*
X103433571Y-62380952D01*
X103528809Y-62333333D01*
X103766904Y-62333333D01*
X103862142Y-62380952D01*
X103909761Y-62428571D01*
X103957380Y-62523809D01*
X103957380Y-62809523D01*
X103909761Y-62904761D01*
X103862142Y-62952380D01*
X104204761Y-66939880D02*
X103633333Y-66939880D01*
X103919047Y-66939880D02*
X103919047Y-65939880D01*
X103823809Y-66082738D01*
X103728571Y-66177976D01*
X103633333Y-66225595D01*
X104633333Y-66844642D02*
X104680952Y-66892261D01*
X104633333Y-66939880D01*
X104585714Y-66892261D01*
X104633333Y-66844642D01*
X104633333Y-66939880D01*
X105061904Y-66035119D02*
X105109523Y-65987500D01*
X105204761Y-65939880D01*
X105442857Y-65939880D01*
X105538095Y-65987500D01*
X105585714Y-66035119D01*
X105633333Y-66130357D01*
X105633333Y-66225595D01*
X105585714Y-66368452D01*
X105014285Y-66939880D01*
X105633333Y-66939880D01*
X106680952Y-66273214D02*
X107061904Y-66273214D01*
X106823809Y-66939880D02*
X106823809Y-66082738D01*
X106871428Y-65987500D01*
X106966666Y-65939880D01*
X107061904Y-65939880D01*
X107538095Y-66939880D02*
X107442857Y-66892261D01*
X107395238Y-66797023D01*
X107395238Y-65939880D01*
X108061904Y-66939880D02*
X107966666Y-66892261D01*
X107919047Y-66844642D01*
X107871428Y-66749404D01*
X107871428Y-66463690D01*
X107919047Y-66368452D01*
X107966666Y-66320833D01*
X108061904Y-66273214D01*
X108204761Y-66273214D01*
X108300000Y-66320833D01*
X108347619Y-66368452D01*
X108395238Y-66463690D01*
X108395238Y-66749404D01*
X108347619Y-66844642D01*
X108300000Y-66892261D01*
X108204761Y-66939880D01*
X108061904Y-66939880D01*
X108823809Y-66273214D02*
X108823809Y-67273214D01*
X108823809Y-66320833D02*
X108919047Y-66273214D01*
X109109523Y-66273214D01*
X109204761Y-66320833D01*
X109252380Y-66368452D01*
X109300000Y-66463690D01*
X109300000Y-66749404D01*
X109252380Y-66844642D01*
X109204761Y-66892261D01*
X109109523Y-66939880D01*
X108919047Y-66939880D01*
X108823809Y-66892261D01*
X109728571Y-66273214D02*
X109728571Y-67273214D01*
X109728571Y-66320833D02*
X109823809Y-66273214D01*
X110014285Y-66273214D01*
X110109523Y-66320833D01*
X110157142Y-66368452D01*
X110204761Y-66463690D01*
X110204761Y-66749404D01*
X110157142Y-66844642D01*
X110109523Y-66892261D01*
X110014285Y-66939880D01*
X109823809Y-66939880D01*
X109728571Y-66892261D01*
X110538095Y-66273214D02*
X110776190Y-66939880D01*
X111014285Y-66273214D02*
X110776190Y-66939880D01*
X110680952Y-67177976D01*
X110633333Y-67225595D01*
X110538095Y-67273214D01*
%TO.C,RN1*%
X110802380Y-92115476D02*
X110326190Y-92448809D01*
X110802380Y-92686904D02*
X109802380Y-92686904D01*
X109802380Y-92305952D01*
X109850000Y-92210714D01*
X109897619Y-92163095D01*
X109992857Y-92115476D01*
X110135714Y-92115476D01*
X110230952Y-92163095D01*
X110278571Y-92210714D01*
X110326190Y-92305952D01*
X110326190Y-92686904D01*
X110802380Y-91686904D02*
X109802380Y-91686904D01*
X110802380Y-91115476D01*
X109802380Y-91115476D01*
X110802380Y-90115476D02*
X110802380Y-90686904D01*
X110802380Y-90401190D02*
X109802380Y-90401190D01*
X109945238Y-90496428D01*
X110040476Y-90591666D01*
X110088095Y-90686904D01*
X106002380Y-94448809D02*
X105002380Y-94448809D01*
X105002380Y-94067857D01*
X105050000Y-93972619D01*
X105097619Y-93925000D01*
X105192857Y-93877380D01*
X105335714Y-93877380D01*
X105430952Y-93925000D01*
X105478571Y-93972619D01*
X105526190Y-94067857D01*
X105526190Y-94448809D01*
X105335714Y-93020238D02*
X106002380Y-93020238D01*
X105335714Y-93448809D02*
X105859523Y-93448809D01*
X105954761Y-93401190D01*
X106002380Y-93305952D01*
X106002380Y-93163095D01*
X105954761Y-93067857D01*
X105907142Y-93020238D01*
X106002380Y-92401190D02*
X105954761Y-92496428D01*
X105859523Y-92544047D01*
X105002380Y-92544047D01*
X106002380Y-91877380D02*
X105954761Y-91972619D01*
X105859523Y-92020238D01*
X105002380Y-92020238D01*
X105335714Y-91067857D02*
X106002380Y-91067857D01*
X105335714Y-91496428D02*
X105859523Y-91496428D01*
X105954761Y-91448809D01*
X106002380Y-91353571D01*
X106002380Y-91210714D01*
X105954761Y-91115476D01*
X105907142Y-91067857D01*
X105335714Y-90591666D02*
X106335714Y-90591666D01*
X105383333Y-90591666D02*
X105335714Y-90496428D01*
X105335714Y-90305952D01*
X105383333Y-90210714D01*
X105430952Y-90163095D01*
X105526190Y-90115476D01*
X105811904Y-90115476D01*
X105907142Y-90163095D01*
X105954761Y-90210714D01*
X106002380Y-90305952D01*
X106002380Y-90496428D01*
X105954761Y-90591666D01*
X106002380Y-88353571D02*
X105526190Y-88686904D01*
X106002380Y-88925000D02*
X105002380Y-88925000D01*
X105002380Y-88544047D01*
X105050000Y-88448809D01*
X105097619Y-88401190D01*
X105192857Y-88353571D01*
X105335714Y-88353571D01*
X105430952Y-88401190D01*
X105478571Y-88448809D01*
X105526190Y-88544047D01*
X105526190Y-88925000D01*
%TO.C,JP1*%
X105846666Y-37567380D02*
X105846666Y-38281666D01*
X105799047Y-38424523D01*
X105703809Y-38519761D01*
X105560952Y-38567380D01*
X105465714Y-38567380D01*
X106322857Y-38567380D02*
X106322857Y-37567380D01*
X106703809Y-37567380D01*
X106799047Y-37615000D01*
X106846666Y-37662619D01*
X106894285Y-37757857D01*
X106894285Y-37900714D01*
X106846666Y-37995952D01*
X106799047Y-38043571D01*
X106703809Y-38091190D01*
X106322857Y-38091190D01*
X107846666Y-38567380D02*
X107275238Y-38567380D01*
X107560952Y-38567380D02*
X107560952Y-37567380D01*
X107465714Y-37710238D01*
X107370476Y-37805476D01*
X107275238Y-37853095D01*
D11*
%TO.C,JP2*%
X109910000Y-57845000D02*
X109910000Y-55185000D01*
X107310000Y-57845000D02*
X109910000Y-57845000D01*
X104710000Y-57845000D02*
X104710000Y-56515000D01*
X107310000Y-57845000D02*
X107310000Y-55185000D01*
X107310000Y-55185000D02*
X109910000Y-55185000D01*
X106040000Y-57845000D02*
X104710000Y-57845000D01*
%TO.C,J1*%
X92477500Y-49400000D02*
X101597500Y-49400000D01*
X100287500Y-99160000D02*
X93787500Y-99160000D01*
X93787500Y-50700000D02*
X100287500Y-50700000D01*
X101597500Y-49400000D02*
X101597500Y-100460000D01*
X100287500Y-50700000D02*
X100287500Y-99160000D01*
X93787500Y-76980000D02*
X92477500Y-76980000D01*
X92477500Y-72880000D02*
X93787500Y-72880000D01*
X93787500Y-76980000D02*
X93787500Y-76980000D01*
X91087500Y-55110000D02*
X92087500Y-54610000D01*
X91087500Y-54110000D02*
X91087500Y-55110000D01*
X93787500Y-72880000D02*
X93787500Y-50700000D01*
X92477500Y-100460000D02*
X92477500Y-49400000D01*
X101597500Y-100460000D02*
X92477500Y-100460000D01*
X93787500Y-99160000D02*
X93787500Y-76980000D01*
X92087500Y-54610000D02*
X91087500Y-54110000D01*
%TO.C,JP4*%
X104710000Y-71815000D02*
X104710000Y-70485000D01*
X107310000Y-69155000D02*
X109910000Y-69155000D01*
X109910000Y-71815000D02*
X109910000Y-69155000D01*
X107310000Y-71815000D02*
X109910000Y-71815000D01*
X107310000Y-71815000D02*
X107310000Y-69155000D01*
X106040000Y-71815000D02*
X104710000Y-71815000D01*
%TO.C,U1*%
X113605000Y-76320000D02*
X123885000Y-76320000D01*
X116095000Y-76260000D02*
X121395000Y-76260000D01*
X123885000Y-76320000D02*
X123885000Y-50680000D01*
X123885000Y-50680000D02*
X113605000Y-50680000D01*
X121395000Y-50740000D02*
X119745000Y-50740000D01*
X113605000Y-50680000D02*
X113605000Y-76320000D01*
X116095000Y-50740000D02*
X116095000Y-76260000D01*
X117745000Y-50740000D02*
X116095000Y-50740000D01*
X121395000Y-76260000D02*
X121395000Y-50740000D01*
X117745000Y-50740000D02*
G75*
G03*
X119745000Y-50740000I1000000J0D01*
G01*
%TO.C,J3*%
X130870000Y-46405000D02*
X129540000Y-46405000D01*
X130870000Y-45075000D02*
X130870000Y-46405000D01*
X130870000Y-36125000D02*
X128210000Y-36125000D01*
X130870000Y-43805000D02*
X128210000Y-43805000D01*
X130870000Y-43805000D02*
X130870000Y-36125000D01*
X128210000Y-43805000D02*
X128210000Y-36125000D01*
%TO.C,J2*%
X130100000Y-99160000D02*
X130100000Y-76980000D01*
X136600000Y-99160000D02*
X130100000Y-99160000D01*
X128790000Y-72880000D02*
X130100000Y-72880000D01*
X136600000Y-50700000D02*
X136600000Y-99160000D01*
X127400000Y-54110000D02*
X127400000Y-55110000D01*
X128790000Y-49400000D02*
X137910000Y-49400000D01*
X130100000Y-76980000D02*
X128790000Y-76980000D01*
X130100000Y-76980000D02*
X130100000Y-76980000D01*
X128790000Y-100460000D02*
X128790000Y-49400000D01*
X130100000Y-50700000D02*
X136600000Y-50700000D01*
X137910000Y-49400000D02*
X137910000Y-100460000D01*
X127400000Y-55110000D02*
X128400000Y-54610000D01*
X137910000Y-100460000D02*
X128790000Y-100460000D01*
X128400000Y-54610000D02*
X127400000Y-54110000D01*
X130100000Y-72880000D02*
X130100000Y-50700000D01*
%TO.C,JP3*%
X109910000Y-64830000D02*
X109910000Y-62170000D01*
X107310000Y-64830000D02*
X109910000Y-64830000D01*
X106040000Y-64830000D02*
X104710000Y-64830000D01*
X107310000Y-62170000D02*
X109910000Y-62170000D01*
X107310000Y-64830000D02*
X107310000Y-62170000D01*
X104710000Y-64830000D02*
X104710000Y-63500000D01*
%TO.C,RN1*%
X106550000Y-78555000D02*
X106550000Y-101755000D01*
X106550000Y-101755000D02*
X109350000Y-101755000D01*
X109350000Y-78555000D02*
X106550000Y-78555000D01*
X109350000Y-81265000D02*
X106550000Y-81265000D01*
X109350000Y-101755000D02*
X109350000Y-78555000D01*
%TO.C,JP1*%
X105985000Y-39325000D02*
X107315000Y-39325000D01*
X105985000Y-41925000D02*
X108645000Y-41925000D01*
X108645000Y-41925000D02*
X108645000Y-47065000D01*
X105985000Y-40655000D02*
X105985000Y-39325000D01*
X105985000Y-41925000D02*
X105985000Y-47065000D01*
X105985000Y-47065000D02*
X108645000Y-47065000D01*
%TD*%
M02*
